<?xml version="1.0" encoding="UTF-8" standalone="no"?>
<svg
   xmlns:dc="http://purl.org/dc/elements/1.1/"
   xmlns:cc="http://creativecommons.org/ns#"
   xmlns:rdf="http://www.w3.org/1999/02/22-rdf-syntax-ns#"
   xmlns:svg="http://www.w3.org/2000/svg"
   xmlns="http://www.w3.org/2000/svg"
   xmlns:sodipodi="http://sodipodi.sourceforge.net/DTD/sodipodi-0.dtd"
   xmlns:inkscape="http://www.inkscape.org/namespaces/inkscape"
   sodipodi:docname="GH.svg"
   inkscape:version="1.0 (4035a4fb49, 2020-05-01)"
   id="svg8"
   version="1.1"
   viewBox="0 0 210 297"
   height="297mm"
   width="210mm">
  <defs
     id="defs2" />
  <sodipodi:namedview
     inkscape:window-maximized="1"
     inkscape:window-y="-8"
     inkscape:window-x="-8"
     inkscape:window-height="705"
     inkscape:window-width="1366"
     inkscape:object-paths="true"
     inkscape:snap-global="true"
     inkscape:snap-others="false"
     inkscape:snap-nodes="true"
     inkscape:object-nodes="true"
     inkscape:snap-smooth-nodes="false"
     showgrid="false"
     inkscape:document-rotation="0"
     inkscape:current-layer="layer1"
     inkscape:document-units="mm"
     inkscape:cy="489.02698"
     inkscape:cx="363.12471"
     inkscape:zoom="0.47457256"
     inkscape:pageshadow="2"
     inkscape:pageopacity="0.0"
     borderopacity="1.0"
     bordercolor="#666666"
     pagecolor="#ffffff"
     id="base" />
  <metadata
     id="metadata5">
    <rdf:RDF>
      <cc:Work
         rdf:about="">
        <dc:format>image/svg+xml</dc:format>
        <dc:type
           rdf:resource="http://purl.org/dc/dcmitype/StillImage" />
        <dc:title></dc:title>
      </cc:Work>
    </rdf:RDF>
  </metadata>
  <g
     id="layer1"
     inkscape:groupmode="layer"
     inkscape:label="Layer 1">
    <path
       sodipodi:insensitive="true"
       inkscape:label="Guwahati"
       id="Guwahati"
       d="m 13.937981,83.070366 -24.530846,3.345116 -12.265423,1.115036 -21.185732,2.787597 -7.24775,1.115039 -10.035347,5.017672 2.787598,3.902634 -1.672559,7.80527 -13.93798,25.64589 -8.362788,8.9203 -1.115039,7.80527 h 5.575191 l 3.345117,10.03535 -1.672558,6.69023 6.69023,0.55752 4.460155,6.13271 12.265422,12.26542 17.283096,5.5752 13.937982,5.57519 0.557519,5.01767 -3.345115,5.57519 7.24775,8.92031 8.9203075,-2.7876 3.9026345,0.55752 L 0,219.66258 l 6.1327117,1.11503 h 7.8052693 l 7.805269,-3.90263 6.690232,-4.46015 c 0,0 0.557519,-2.7876 2.787594,-2.7876 2.230078,0 3.902636,-1.67256 3.902636,-1.67256 l 3.902633,3.90264 3.902636,1.11504 1.672559,-3.90264 4.460152,1.67256 -2.230077,26.76092 -1.115039,2.7876 9.477827,3.90263 3.345116,-2.23007 1.672559,-20.62822 17.283096,1.11504 5.017672,6.13271 3.902636,-2.78759 6.69023,-10.59287 11.707898,0.55752 2.23008,1.67256 7.24775,-1.67256 3.34512,3.34512 -6.69023,3.34511 -2.7876,8.92031 5.01767,1.67256 10.03535,-3.90264 6.69023,0.55752 6.69023,1.11504 3.34512,-3.34511 3.34511,2.23007 9.47783,-7.80527 15.05302,-2.23007 h 7.24775 l 3.90263,-3.34512 5.5752,3.34512 h 5.01767 l -2.7876,4.46015 v 8.36279 l -5.01767,2.23008 -2.7876,4.46015 -6.69023,6.13271 -3.90263,1.11504 -1.67256,7.24775 3.90263,7.24775 5.5752,2.23008 6.13271,1.11504 5.57519,-1.11504 -0.55752,-5.57519 5.57519,-6.13272 8.36279,-5.57519 8.92031,-8.36279 -3.34512,-3.34511 h 10.59287 l 5.01767,-5.5752 8.92031,-13.93798 5.01767,-1.11503 3.34512,-12.26543 6.13271,-9.47782 10.59287,3.34511 5.57519,8.36279 6.69023,4.46015 4.46016,3.34512 8.36279,-16.16806 v -3.34511 l 5.01767,-6.69023 3.90263,-1.67256 3.90263,-2.23008 -14.49549,-8.92031 -5.5752,-10.59286 v -3.90264 l -6.69022,-0.55752 -3.34512,2.23008 -1.11504,-5.01767 1.11504,-13.38046 5.01768,-1.11504 5.57517,-2.23008 -0.55751,-3.34511 -10.03534,-3.90264 6.13271,-2.78759 3.3451,-8.36279 1.67257,-7.80527 -3.3451,-5.01768 9.47782,-12.265419 7.80526,2.787595 4.46016,-1.115039 0.55751,-4.460153 -5.01767,-5.017672 -2.78759,-4.460155 5.01766,-3.345114 -5.57519,-5.575194 -11.7079,-5.017672 -3.90263,-0.55752 3.3451,-8.920308 5.0177,-10.035346 v -5.017672 l -2.7876,-4.460156 -6.13273,-4.460152 -8.36278,-6.132711 h -3.90263 l -4.46016,-5.017674 -7.80527,-5.575193 -55.1944,-1.115038 -5.57519,3.902635 -8.92031,4.460153 -10.59287,1.115039 -11.15038,5.017672 -2.23008,-3.902633 -5.01767,0.55752 -6.69023,1.115038 -6.69023,5.575192 -19.51318,13.38046 h -9.47782 l -6.132716,9.477828 -12.265421,18.955654 -9.477828,9.477828 -10.592866,5.017672 -9.477827,-5.017672 -10.035347,-1.672559 -6.132711,1.672559 h -7.805269 l -6.69023,-3.345117 -5.575193,3.345117 z"
       style="fill:#ff5555;fill-opacity:1;stroke:#000000;stroke-width:0.265;stroke-linecap:butt;stroke-linejoin:miter;stroke-opacity:1;stroke-miterlimit:4;stroke-dasharray:none" />
  </g>
</svg>
