<svg
  width="542"
  height="622"
  viewBox="0 0 542 622"
  fill="none"
  xmlns="http://www.w3.org/2000/svg"
>
  <path
    fill-rule="evenodd"
    clip-rule="evenodd"
    d="M350.65 9.18038C416.466 29.8139 423.997 124.217 480.573 163.672C539.215 204.567 640.283 175.032 676.698 236.556C712.145 296.444 665.734 371.723 642.555 437.342C619.997 501.201 604.35 577.436 544.855 609.797C486.416 641.582 417.126 598.609 350.65 596.114C287.858 593.756 216.24 634.328 166.757 595.602C117.164 556.789 133.053 478.836 121.658 416.9C112.082 364.849 102.237 315.675 105.539 262.854C109.979 191.828 94.633 109.359 144.083 58.1815C194.49 6.01394 281.43 -12.5201 350.65 9.18038Z"
    fill="#CFE3FE"
  />
  <path
    fill-rule="evenodd"
    clip-rule="evenodd"
    d="M288.842 230.832C294.572 227.615 297.917 221.847 301.229 216.138C301.727 215.28 302.224 214.423 302.728 213.576C303.066 213.009 303.435 212.424 303.811 211.829V211.828C304.805 210.254 305.849 208.6 306.5 206.98C306.785 206.272 307.031 205.233 307.28 204.183C307.574 202.944 307.87 201.69 308.239 200.947C309.044 199.325 315.153 198.586 319.315 198.083C320.689 197.917 321.851 197.777 322.539 197.638C329.853 196.171 338.594 195.29 344.571 201.016C345.992 202.377 347.583 203.632 349.18 204.892C351.094 206.401 353.016 207.917 354.661 209.628C357.303 212.377 360.859 217 362.114 220.671C355.676 221.912 344.977 225.713 342.414 232.47C332.976 223.807 328.992 238.236 326.902 245.807C326.775 246.269 326.654 246.706 326.54 247.11C321.4 244.886 321.667 238.118 321.863 233.162V233.161C321.89 232.467 321.916 231.809 321.926 231.203C321.94 230.304 322.076 229.368 322.209 228.455C322.655 225.394 323.063 222.591 318.69 222.344C314.447 222.106 310.327 223.834 306.5 225.451C301.726 227.471 296.716 230.491 292.86 233.96L288.842 230.832ZM279.568 217.336C279.568 217.5 279.565 217.664 279.564 217.828C279.549 219.288 279.535 220.743 279.978 222.15C280.234 222.963 280.239 224.153 280.242 225.295C280.245 226.123 280.248 226.926 280.346 227.543C276.202 226.282 268.501 224.41 264.27 226.112C260.224 227.738 259.715 235.26 259.572 238.919C259.536 239.844 259.666 240.954 259.801 242.106C260.029 244.062 260.271 246.139 259.743 247.641C259.336 248.799 259.349 249.142 259.376 249.225C259.306 249.184 258.989 249.172 257.826 250.011C257.308 250.385 256.744 250.682 256.177 250.98C255.501 251.336 254.822 251.694 254.212 252.186C252.59 253.495 252.036 254.942 251.371 256.68C251.2 257.128 251.021 257.596 250.814 258.085C249.835 260.403 247.229 262.463 244.319 262.38C244.689 261.708 245.082 261.045 245.474 260.383C247.558 256.862 249.61 253.394 248.042 249.203C246.663 245.517 249.007 241.204 250.927 237.672L251.039 237.465C251.157 237.248 251.492 236.767 251.942 236.121C253.945 233.244 258.218 227.108 255.644 226.587C253.813 226.215 249.865 233.858 248.405 236.683C248.231 237.019 248.093 237.287 247.998 237.465C245.49 235.77 244.364 233.68 246.294 231.126C246.976 230.223 247.731 229.381 248.486 228.536C249.372 227.546 250.261 226.554 251.039 225.458C251.726 224.493 252.407 223.471 253.098 222.438C254.763 219.943 256.48 217.371 258.447 215.302C263.334 210.162 271.864 206.663 278.9 206.632C278.742 208.634 278.971 210.558 279.203 212.508C279.39 214.082 279.579 215.673 279.568 217.336ZM259.393 249.248C259.395 249.245 259.392 249.234 259.376 249.225C259.383 249.246 259.391 249.251 259.393 249.248ZM299.414 299.455C300.801 296.542 302.013 293.996 302.728 292.709C307.053 284.927 311.335 277.211 315.39 269.285C312.174 270.511 309.451 272.391 306.692 274.295C306.275 274.583 305.859 274.87 305.439 275.156C303.985 276.147 302.399 277.042 300.805 277.941C298.412 279.292 296 280.654 293.988 282.366C293.533 282.754 293.164 283.184 292.813 283.594C292.01 284.529 291.298 285.358 289.849 285.344C288.859 285.335 287.457 284.312 286.203 283.397C285.473 282.865 284.793 282.369 284.274 282.131C283.252 281.663 282.41 281.051 281.576 280.446C280.637 279.764 279.709 279.09 278.549 278.641C277.828 278.361 277.239 278.267 276.696 278.181C275.778 278.036 274.992 277.911 273.928 276.943C273.242 280.998 263.71 279.088 257.526 277.849C255.473 277.437 253.789 277.1 252.92 277.079C252.59 277.072 252.24 277.062 251.896 277.051C248.806 276.961 244.966 276.85 242.274 278.006C240.212 278.891 237.775 280.89 235.66 282.625C234.843 283.296 234.075 283.926 233.395 284.438C230.04 286.96 227.648 290.176 225.178 293.668C222.008 298.149 226.741 297.716 230.157 297.405C230.392 297.383 230.621 297.362 230.841 297.344C238.625 296.683 246.188 297.994 253.692 299.772C260.393 301.359 266.489 303.798 272.905 306.373C274.093 306.85 276.253 307.971 278.689 309.236C283.655 311.814 289.77 314.989 291.148 314.519C292.459 314.071 296.361 305.872 299.414 299.455Z"
    fill="#5380F9"
  />
  <path
    fill-rule="evenodd"
    clip-rule="evenodd"
    d="M342.904 248.978C345.606 248.84 348.296 249.443 350.997 249.18C348.651 247.137 346.306 245.094 343.96 243.052C342.925 244.871 342.849 246.942 342.904 248.978ZM278.809 206.98C271.816 207.011 263.286 210.523 258.428 215.653C255.855 218.371 253.728 222.022 251.551 225.076C250.091 227.126 248.666 229.104 246.893 230.904C244.309 233.529 245.049 234.129 247.961 236.105C248.882 234.379 253.768 225.146 255.816 225.562C258.927 226.193 252.918 235.945 252.262 237.16C250.318 240.754 247.178 245.775 248.589 249.566C250.45 254.57 247.752 257.422 245.408 261.686C247.869 261.758 248.111 260.798 248.96 258.699C250.049 256.002 251.237 253.749 253.54 251.883C255.324 250.44 258.241 249.832 259.079 248.088C260.116 245.933 259.465 241.677 259.549 239.279C259.677 235.636 259.686 227.023 263.701 225.405C267.907 223.709 275.47 225.307 279.582 226.563C279.068 223.353 277.449 221.255 277.471 217.688C277.495 213.953 278.524 210.621 278.809 206.98ZM225.088 266.562C228.746 265.404 232.214 264.184 235.977 263.395C239.915 262.569 240.179 261.624 242.399 258.246C244.082 255.686 246.123 253.691 245.647 250.555C245.341 248.544 244.24 247.564 244.571 245.303C244.776 243.901 245.43 242.371 245.903 241.037C246.483 239.402 247.684 237.547 244.891 237.466C243.349 237.422 243.273 238.236 242.229 239.602C240.303 242.125 238.086 244.417 236.036 246.837C232.476 251.04 228.7 255.512 224.726 259.402C220.351 263.681 216.574 268.844 213.747 274.323C213.224 275.335 210.048 281.295 211.403 282.464C212.648 283.537 219.568 281.034 220.829 280.741C226.276 279.477 232.458 279.026 237.603 276.729C240.225 275.559 246.01 274.163 248.081 272.353C250.006 270.67 249.919 266.594 248.802 264.222C245.676 266.167 223.073 273.505 225.088 266.562ZM293.137 233.114C296.786 229.817 301.1 227.172 305.607 225.213C309.638 223.46 314.646 221.506 319.131 221.81C324.718 222.189 322.383 226.69 322.363 230.522C322.337 235.608 320.108 242.935 326.181 245.573C328.163 238.531 332.341 221.879 342.351 231.106C344.909 224.336 354.032 222.044 360.457 220.8C359.292 217.379 355.755 214.283 353.304 211.715C350.237 208.503 347.816 204.738 344.743 201.588C338.674 195.364 327.678 197.363 319.993 198.914C317.428 199.432 309.992 200.081 308.75 201.965C307.97 203.147 308.406 206.033 307.828 207.478C307.032 209.468 305.672 211.313 304.581 213.151C300.601 219.859 296.552 226.61 289.74 230.451L293.137 233.114ZM315.411 269.25C311.807 270.632 309.156 272.945 305.96 274.892C302.084 277.253 297.539 279.464 294.061 282.38C292.788 283.447 292.073 285.29 290.317 285.409C288.789 285.513 286.46 283.738 285.105 283.117C282.833 282.074 280.662 280.493 278.379 279.564C276.502 278.8 275.671 278.956 274.047 277.47C273.136 282.891 256.565 277.824 253.089 277.741C249.873 277.665 245.461 278.046 242.468 279.338C239.616 280.569 237.386 283.28 234.945 285.127C231.598 287.66 228.406 290.221 225.942 293.727C222.562 298.533 227.661 297.173 231.062 296.883C238.824 296.219 246.376 298.068 253.859 299.852C260.547 301.447 267.154 303.36 273.557 305.945C277.158 307.4 280.948 308.737 284.335 310.627C286.12 311.625 289.016 314.065 291.065 313.361C292.944 312.717 294.817 307.331 295.955 305.179C298.168 301.003 300.495 296.898 302.779 292.763C307.094 284.952 311.367 277.206 315.411 269.25ZM271.064 372.629C273.285 371.353 276.906 371.697 279.361 371.162C282.137 370.558 284.927 369.574 287.573 368.548C290.253 367.51 292.785 366.447 295.234 365.147C296.354 364.553 297.846 363.968 298.881 363.144C299.715 362.479 300.019 361.244 300.788 360.641C302.794 359.068 303.384 360.055 303.653 357.02C303.945 353.723 302.095 351.856 299.793 349.389C297.731 347.181 295.053 345.273 292.463 343.719C291.317 343.033 290.094 342.26 288.924 341.604C287.155 340.611 284.785 338.96 283.856 341.092C285.79 341.585 286.216 344.054 284.471 344.941C283.513 345.429 282.062 344.713 280.982 345.231C279.314 346.03 277.71 348.262 276.282 349.463C271.596 353.409 267.114 354.888 260.98 355.205C248.163 355.866 234.741 354.404 222.171 352.504C218.936 352.015 215.706 352.545 212.44 352.428C209.263 352.315 205.951 351.62 202.827 351.083C196.812 350.05 190.471 349.199 184.549 347.679C177.387 345.84 170.2 343.461 163.475 340.381C157.025 337.425 149.734 332.542 142.489 332.165C145.581 335.192 150.214 336.358 153.933 338.353C156.972 339.981 161.725 341.027 163.645 343.711C164.895 345.458 165.522 348.666 166.467 350.715C167.511 352.982 168.474 355.284 169.441 357.585C170.412 359.9 171.424 362.216 172.212 364.6C172.701 366.08 172.911 369.147 174.064 370.158C175.904 371.772 182.061 372.488 184.541 373.025C189.17 374.028 194.449 373.895 199.171 373.964C201.122 373.993 203.089 374.259 204.953 374.295C207.571 374.345 207.321 373.892 207.284 371.619C207.263 370.254 207.29 367.772 209.116 368.896C210.36 369.662 209.504 373.055 209.273 374.261C219.695 375.299 230.568 375.821 240.941 375.473C251.141 375.132 260.988 373.816 271.064 372.629ZM318.129 348.706C319.968 335.501 322.209 322.075 324.717 309.042C327.252 295.871 330.299 282.819 333.727 269.697C331.463 269.155 329.199 268.615 326.934 268.074C326.85 270.839 325.915 273.24 325.517 275.992C324.966 279.79 323.915 283.479 323.285 287.265C322.089 294.462 319.873 301.504 317.921 308.522C315.931 315.677 315.265 323.048 313.437 330.239C311.93 336.163 311.16 342.688 310.319 348.778C308.277 363.553 305.369 378.357 303.155 393.139C301.079 406.999 300.871 421.139 300.99 435.128C301.064 443.668 302.367 452.184 302.299 460.736C302.282 462.85 302.46 464.957 302.57 467.068C302.647 468.557 301.847 472.685 302.525 473.932C302.955 474.722 304.8 475.45 305.453 476.547C306.486 478.282 306.704 480.356 308.363 481.668C309.708 476.244 309.072 469.085 308.779 463.548C308.494 458.214 309.046 452.701 309.155 447.286C309.367 436.661 309.93 426.192 310.475 415.562C311.072 403.905 312.77 391.964 314.429 380.395C315.938 369.875 316.944 359.169 318.129 348.706ZM268.909 183.105C268.18 183.037 267.451 182.97 266.721 182.902C266.83 184.438 266.506 186.927 267.589 187.728C268.41 188.336 270.072 188.136 271.067 188.33C274.328 188.968 278.107 189.501 281.345 188.34C282.603 187.888 281.795 187.182 283.527 187.475C285.613 187.83 284.851 188.16 285.454 189.462C285.918 190.466 286.157 192.176 286.684 193.382C287.389 194.996 288.818 197.884 288.207 199.748C287.614 201.56 285.398 202.107 284.456 204.159C283.756 205.684 283.921 207.901 283.558 209.581C283.072 211.822 282.458 214.054 282.187 216.336C281.846 219.211 281.963 222.584 285.525 223.03C288.832 223.445 291.195 222.383 293.412 219.975C297.647 215.378 302.481 208.89 304.968 203.108C305.259 202.432 305.974 201.305 305.874 200.582C305.677 199.152 305.591 200.6 305.138 199.606C304.705 198.656 304.026 197.795 303.627 196.741C302.19 192.954 301.172 188.985 300.597 184.977C300.335 183.161 300.248 181.368 300.293 179.534C300.307 178.908 300.683 177.028 300.459 176.6C300.231 176.165 299.039 175.965 298.668 175.534C297.979 174.735 296.797 172.479 296.035 171.881C295.096 171.146 292.997 171.728 292.616 170.266C292.007 167.927 306.434 164.116 299.694 160.994C294.661 158.663 286.943 170.446 285.183 161.174C284.879 159.568 285.459 157.388 284.755 155.916C283.976 154.29 281.857 153.682 280.377 152.89C278.487 151.881 276.579 150.843 274.743 149.738C273.484 148.981 271.669 146.969 270.329 146.784C270.857 149.515 269.846 152.222 269.829 154.947C272.732 154.162 274.73 154.145 277.595 155.542C278.96 156.207 284.102 159.98 281.497 161.795C279.386 160.547 277.129 159.465 274.776 158.732C273.848 158.442 272.689 158.048 271.702 158.028C269.411 157.982 269.734 158.222 268.874 159.949C268.045 161.613 268.223 165.954 266.402 167.016C264.52 168.115 265.972 166.577 264.364 166.932C263.448 167.135 262.449 167.817 261.609 168.202C262.759 169.45 265.08 170.589 265.843 171.976C266.956 173.997 266.57 178.177 266.744 180.389C268.2 179.867 269.733 179.846 271.21 179.459C272.597 179.094 274.522 177.517 274.667 179.836C274.828 182.42 270.743 183.105 268.909 183.105ZM287.865 251.135C287.978 248.902 288.102 246.67 288.35 244.446C288.518 242.953 289.936 238.623 289.135 237.311C288.263 235.884 285.343 235.794 283.937 235.451C281.243 234.794 278.658 234.257 275.92 233.823C273.401 233.424 271.028 233.34 268.49 233.224C265.726 233.1 265.041 232.366 264.43 235.412C263.95 237.807 263.305 240.302 263.216 242.753C263.132 245.055 263.827 247.053 261.546 248.604C266.555 248.604 273.078 244.145 277.648 248.132C284.187 253.835 272.809 255.477 269.808 256.736C272.303 257.948 276.005 258.9 277.179 261.669C278.496 264.772 276.585 266.092 273.659 266.34C273.934 267.536 274.988 268.313 275.302 269.752C275.761 271.86 274.271 271.162 276.172 272.794C278.676 274.941 283.832 276.376 286.902 277.744C287.621 278.066 288.349 278.368 289.085 278.65C290.236 279.674 291.085 279.479 291.634 278.064C293.209 277.067 294.612 274.842 296.009 273.549C299.118 270.669 302.549 268.142 306.244 266.063C304.713 265.428 302.881 266.862 301.411 266.164C300.223 265.6 300.671 264.574 299.959 263.805C300.245 262.804 299.943 262.437 299.056 262.706C298.612 262.754 298.2 262.678 297.818 262.481C297.075 261.56 296.741 261.258 296.691 259.836C296.639 258.327 297.513 257.794 297.849 256.586C298.939 255.843 298.914 255.113 297.774 254.397C297.306 253.631 297.05 252.8 297.008 251.903C296.791 248.575 299.829 247.233 302.146 245.473C297.997 245.016 298.156 240.15 301.027 238.023C304.002 235.818 310.302 236.721 313.9 237.218C314.648 237.321 316.67 238.286 317.426 237.671C317.89 237.294 317.563 234.105 317.584 233.542C317.633 232.265 317.943 230.742 317.74 229.47C317.314 226.809 318.216 228.149 316.301 228.076C311.741 227.899 305.935 231.879 301.924 233.755C297.434 235.856 294.549 236.179 294.502 241.387C294.457 246.318 293.074 251.231 292.471 256.084C292.207 258.203 292.018 269.214 288.14 265.15C286.636 263.574 287.599 261.151 287.711 259.207C287.863 256.532 287.773 253.817 287.865 251.135ZM37.0436 416.206C39.2635 416.6 42.8783 415.326 45.3 415.192C49.5339 414.96 53.8941 414.556 58.0425 413.675C61.2877 412.986 64.9858 412.379 66.7359 409.238C68.3006 406.43 68.8533 402.914 69.696 399.851C70.1436 398.224 71.2984 395.865 71.2979 394.182C71.2973 391.995 71.0027 392.426 68.7211 391.228C65.8332 389.713 63.0234 387.602 59.9083 386.742C58.9658 386.558 58.0228 386.378 57.0793 386.201C55.8587 385.493 55.17 385.841 55.0102 387.244C53.8187 388.5 53.1205 390.815 52.1207 392.285C49.8418 395.634 47.1355 397.917 43.5999 399.849C37.2374 403.324 31.3093 406.006 24.4949 408.278C20.7395 409.53 17.2766 411.287 13.6058 412.668C10.6651 413.774 6.60647 414.11 4.34751 416.572C1.7987 419.349 5.71638 420.359 7.89389 422.237C9.67812 423.775 9.71285 424.128 12.1535 423.381C13.9717 422.824 15.5837 421.761 17.3297 421.039C23.3109 418.569 30.55 416.925 37.0436 416.206ZM173.735 460.261C171.506 459.778 169.277 459.296 167.048 458.815C169.24 462.907 173.85 468.896 170.541 473.632C169.304 475.401 167.247 475.906 165.41 476.804C163.186 477.891 161.132 479.282 159.029 480.577C150.359 485.916 141.547 491.33 132.411 495.911C135.271 496.834 139.668 497.473 142.614 496.668C146.044 495.731 149.22 493.58 152.742 492.64C159.059 490.954 165.709 489.518 172.128 488.653C177.374 487.946 190.507 489.544 189.869 481.653C189.264 474.162 184.789 467.015 183.458 459.609C180.19 460.335 177.073 460.208 173.735 460.261ZM306.602 340.36C309.142 327.889 310.66 315.208 313.657 302.827C315.152 296.651 316.206 290.39 317.666 284.212C318.346 281.338 318.859 278.435 319.521 275.567C320.192 272.662 321.634 269.982 321.964 266.98C319.536 267.58 318.974 273.141 318.238 275.233C316.888 279.071 315.416 282.759 313.681 286.433C310.923 292.274 307.997 297.909 304.886 303.572C301.606 309.544 298.141 315.288 294.043 320.742C292.697 322.534 290.87 323.939 290.002 325.904C288.637 328.997 288.063 332.682 286.76 335.901C287.678 336.367 290.05 336.483 291.175 336.705C293.269 337.118 294.736 337.485 296.748 338.481C300.291 340.235 303.267 342.315 305.635 345.471C306.229 343.851 306.384 342.074 306.602 340.36ZM207.845 435.503C207.803 423.493 207.633 411.381 207.83 399.461C207.884 396.151 208.153 392.579 208.633 389.294C208.935 387.23 210.708 382.841 209.542 381.851C208.546 381.005 203.287 381.562 201.996 381.532C199.493 381.474 196.998 381.363 194.489 381.174C194.489 385.625 196.228 390.68 197.036 395.082C197.789 399.189 198.408 403.319 199.03 407.445C200.375 416.38 200.758 425.437 202.219 434.396C203.543 442.518 205.289 450.607 206.252 458.728C206.78 463.186 207.849 467.392 208.68 471.848C209.113 474.171 210.696 483.741 212.688 484.682C213.109 481.249 211.389 477.104 211.08 473.633C210.763 470.049 210.516 466.441 209.935 462.838C209.253 458.609 208.908 454.276 208.646 449.994C208.486 447.374 208.438 444.762 208.211 442.144C208.048 440.245 207.329 437.366 207.845 435.503ZM270.432 274.909C270.515 273.601 267.13 273.654 266.499 272.151C265.22 269.098 268.135 269.648 269.927 269.332C269.289 267.634 257.323 268.252 260.111 263.67C262.045 260.491 269.378 265.357 271.338 262.336C272.626 260.352 269.12 260.078 267.73 259.88C265.638 259.58 260.709 260.548 260.871 257.834C261.076 254.423 270.657 252.069 273.345 251.067C273.047 248.731 261.515 252.051 259.847 252.998C256.069 255.141 253.175 258.985 252.621 263.259C251.975 268.231 254.497 272.147 259.463 273.367C261.533 273.876 263.064 273.932 264.979 274.697C266.24 275.2 270.32 276.454 271.184 275.185C270.933 275.093 270.683 275.001 270.432 274.909ZM338.129 243.983C338.32 241.86 340.108 237.863 338.048 236.468C335.166 234.516 333.973 237.733 333.319 239.665C332.521 242.024 329.164 247.801 332.099 249.271C332.782 249.613 336.018 249.215 336.589 248.99C338.179 249.404 338.691 248.809 338.129 247.202V243.983ZM267.799 415.449C267.618 409.645 270.217 402.669 271.689 396.985C273.358 390.545 274.238 383.977 276.006 377.608C274.039 377.845 272.054 378.039 270.11 378.433C267.458 378.972 267.411 378.887 267.601 381.488C267.885 385.394 267.513 389.224 267.311 393.129C266.907 400.948 267.892 408.895 267.237 416.664C267.821 416.812 268.008 416.407 267.799 415.449ZM341.218 263.361C347.589 264.335 353.695 266.356 359.493 269.069C362.688 270.565 366.208 272.173 369.779 272.77C373.747 273.434 377.955 273.123 382.006 273.379C383.435 273.469 387.189 274.163 388.582 273.323C389.962 272.49 389.854 271.08 389.919 269.399C390.086 265.074 388.128 260.84 386.368 256.959C384.858 253.63 383.716 251.088 381.373 248.225C378.364 244.547 375.744 240.578 372.926 236.739C370.801 233.846 368.655 230.994 366.489 228.104C364.94 226.034 365.013 225.322 362.678 225.554C360.379 225.782 358.064 227.141 355.898 227.861C352.684 228.93 348.792 229.517 345.86 231.227C343.965 232.332 343.881 232.536 343.903 234.465C343.923 236.261 344.503 238.453 345.577 239.859C347.81 242.777 351.512 244.321 354.688 245.777C356.526 246.619 358.114 247.813 359.75 248.975C361.512 250.227 365.068 250.964 366.416 252.391C370.343 256.548 363.195 255.726 361.198 255.601C356.888 255.33 352.602 255.371 348.26 255.368C343.521 255.365 338.82 255.144 334.148 255.298C331.412 255.389 328.272 254.001 326.499 251.687C325.641 250.567 325.306 249.507 324.184 248.344C322.713 246.822 321.433 245.218 319.644 244.04C316.716 242.112 311.395 241.021 307.909 241.741C309.158 241.915 315.028 243.914 312.444 246.426C312.129 246.731 308.353 246.932 307.532 247.309C306.051 247.989 304.184 248.977 303.316 250.414C305.845 249.99 315.226 249.499 310.44 254.353C309.266 255.544 305.893 256.733 308.763 258C309.422 258.291 310.742 257.879 311.59 258.141C312.852 258.532 313.883 259.576 315.065 260.133C318.417 261.715 323.037 262.689 326.535 262.343C331.372 261.863 336.413 262.727 341.218 263.361ZM212.938 409.6C213.104 416.572 212.852 423.585 213.001 430.589C213.159 438.069 214.119 445.399 214.576 452.804C214.987 459.44 215.883 465.95 216.611 472.554C217.03 476.359 217.513 479.996 218.156 483.772C218.759 487.305 218.862 490.418 214.639 491.368C206.564 493.185 205.309 481.568 203.748 476.673C201.419 469.368 199.925 461.7 198.77 454.126C196.622 440.023 193.764 426.116 192.649 411.893C191.962 403.135 190.967 394.466 190.402 385.716C190.291 384.001 190.728 381.36 189.223 380.596C188.317 380.137 185.822 380.133 184.679 379.801C181.494 378.874 178.556 377.51 175.449 376.094C177.654 387.627 178.383 399.103 180.037 410.737C180.915 416.909 182.595 423.306 184.051 429.382C185.559 435.678 185.894 442.457 187.634 448.616C188.401 451.33 189.05 452.436 187.937 455.222C186.573 458.643 187.478 459.461 189.189 462.82C192.337 469 194.74 476.292 194.207 483.259C193.771 488.949 189.473 491.927 184.147 493.463C177.486 495.382 170.511 495.155 163.809 497.335C157.97 499.234 152.038 500.637 146.368 503.145C144.082 504.155 141.91 505.354 139.371 505.54C135.889 505.793 133.541 503.773 130.253 503.351C128.198 503.089 125.188 504.069 124.004 501.915C123.065 500.207 124.127 496.479 125.306 495.104C128.616 491.24 135.245 487.874 139.709 485.593C144.854 482.965 149.832 479.676 154.599 476.284C157.488 474.228 160.435 472.255 163.322 470.195C165.232 468.831 165.958 468.823 165.763 466.657C165.607 464.929 164.829 463.254 164.692 461.485C164.588 460.13 165.063 458.283 164.423 457.399C163.952 456.746 162.184 456.286 161.489 455.793C158.946 453.991 158.369 451.761 157.214 449.02C154.592 442.793 151.579 436.742 149.047 430.465C143.61 416.99 140.293 402.819 135.785 389.068C131.181 375.02 127.063 360.272 124.528 345.696C121.134 346.728 117.931 351.298 115.229 353.559C111.578 356.615 107.837 359.57 104.257 362.709C98.3879 367.855 92.4454 372.86 87.5956 379.023C85.2589 381.992 83.3459 385.186 81.2305 388.305C80.0088 390.106 78.8693 392.146 77.5462 393.859C77.3338 394.135 77.3274 394.699 77.0986 394.934C76.5947 395.448 75.6321 394.763 75.3093 395.102C73.315 397.187 73.341 403.108 72.7198 405.859C71.8633 409.651 70.9018 414.011 67.9411 416.624C63.3675 420.661 54.9332 421.286 49.1452 421.496C41.7171 421.765 34.5115 423.835 27.4641 426.058C24.1769 427.094 20.9758 428.308 17.6764 429.314C15.7787 429.894 13.6139 431.049 11.5872 430.827C9.14324 430.559 7.21347 428.503 5.42323 426.974C2.55924 424.529 -0.0923603 422.119 0.0024689 418.107C0.103298 413.861 2.40367 410.656 6.02752 408.546C13.0336 404.468 20.8696 401.854 28.4214 399.036C31.3151 397.955 33.7926 396.76 36.5594 395.305C40.4694 393.249 44.9698 391.572 48.439 388.857C49.4617 388.056 53.2209 385.603 53.541 384.337C53.583 384.172 52.6437 382.24 52.6395 381.934C52.6304 381.145 53.0971 380.291 53.3844 379.617C55.1912 375.369 58.222 371.278 60.5391 367.273C64.7825 359.935 69.0424 352.56 73.9622 345.659C83.7727 331.902 94.7933 318.431 106.688 306.422C112.486 300.567 117.497 293.926 123.377 288.153C125.707 285.866 128.167 284.003 131.037 282.519C134.237 280.864 137.829 280.54 141.497 280.034C150.385 278.811 157.808 281.44 166.153 283.728C174.042 285.891 181.939 287.715 189.872 289.968C198.584 292.442 207.207 294.814 215.891 297.511C220.532 298.951 225.305 299.835 229.967 301.218C232.212 301.883 240.7 306.051 242.571 304.681C236.675 301.914 230.635 299.393 224.326 297.723C222.469 297.231 221.282 297.776 221.351 295.642C221.389 294.479 222.696 292.908 223.167 291.95C224.294 289.657 225.571 287.417 226.673 285.117C222.674 286.253 211.925 290.183 208.911 286.12C205.758 281.867 208.39 273.529 210.367 269.366C215.527 258.496 224.302 249.426 232.853 241.232C234.702 239.461 238.689 237.148 239.675 234.891C239.975 234.205 239.322 233.197 239.999 232.306C240.401 231.776 242.016 231.414 242.662 230.842C245.013 228.761 246.889 224.382 248.513 221.653C250.215 218.796 251.748 215.701 253.886 213.137C257.383 208.945 260.994 204.501 266.657 203.52C269.434 203.039 272.384 203.296 275.046 202.336C278.265 201.176 281.324 199.349 284.574 198.147C283.768 196.489 283.114 193.853 281.549 193.672C280.043 193.497 277.834 194.792 276.109 194.782C273.591 194.769 271.442 194.366 269.012 193.886C266.322 193.354 265.436 193.451 264.456 190.533C263.428 187.477 263.687 183.927 263.695 180.752C263.699 179.201 264.007 177.276 263.875 175.753C263.677 173.459 263.231 173.37 261.432 171.911C259.185 170.089 256.415 167.676 259.168 164.509C260.655 162.798 263.711 164.129 265.029 162.29C266.37 160.417 266.306 155.712 266.714 153.511C262.578 155.545 264.095 147.944 264.094 146.115C264.093 143.454 262.31 138.668 264.877 136.454C266.07 135.426 266.957 136.276 268.321 135.685C269.877 135.011 270.858 133.243 272.514 132.558C275.805 131.195 279.166 132.836 282.545 132.565C286.422 132.255 290.229 131.655 294.127 132.277C295.973 132.571 296.751 133.272 298.313 134.059C299.816 134.815 301.34 135.022 302.972 135.509C304.425 135.942 305.698 136.161 306.679 137.426C307.455 138.427 307.139 140.112 307.922 140.975C308.695 141.825 310.223 141.702 311.144 142.711C312.028 143.681 312.557 145.283 313.017 146.489C313.637 148.113 313.71 148.724 314.803 150.024C315.756 151.159 317.128 152.071 317.924 153.365C319.798 156.416 319.845 160.828 319.247 164.261C319.044 165.43 317.35 168.451 317.615 169.445C317.868 170.392 319.456 170.143 320.176 170.741C320.797 171.259 321.344 173.564 321.834 173.704C322.893 174.008 324.199 171.917 325.002 171.603C326.396 171.058 326.98 170.499 327.752 172.554C328.325 174.079 327.527 176.149 327.107 177.604C326.573 179.457 325.983 181.689 324.567 183.09C322.903 184.737 321.571 183.837 319.735 184.724C316.983 186.053 317.795 190.211 314.409 191.399C311.182 192.531 307.627 188.969 305.187 187.332C305.692 191.307 307.595 195.137 306.682 199.211C314.103 196.303 321.443 192.176 329.531 191.267C333.655 190.803 337.821 190.254 341.713 191.966C346.271 193.97 349.062 198.39 352.147 202.063C357.943 208.965 363.891 215.674 369.454 222.799C374.557 229.335 378.86 236.907 384.477 243.026C390.172 249.232 394.471 259.301 393.847 267.894C393.791 268.67 393.19 270.432 393.284 271.268C393.357 271.909 393.94 272.721 393.93 273.238C393.899 274.977 393.324 275.978 391.667 276.942C388.793 278.616 384.512 279.463 381.265 279.878C376.95 280.43 371.666 280.49 367.35 279.9C362.898 279.291 358.985 276.8 354.891 275.294C351.3 273.972 347.694 273.147 343.92 272.304C341.839 271.839 339.534 270.551 338.248 271.797C337.067 272.943 336.822 278.819 336.547 280.382C333.561 297.319 330.013 313.682 326.871 330.533C323.31 349.632 320.874 368.724 318.398 387.986C316.147 405.495 315.411 423.202 314.907 440.695C314.667 449.039 314.632 457.295 314.683 465.646C314.712 470.323 317.05 485.933 310.117 486.53C306.043 486.883 302.784 481.042 301.692 477.857C300.052 473.071 299.198 467.917 298.936 462.889C298.407 452.711 297.714 442.526 297.303 432.344C296.859 421.313 297.424 410.079 298.331 399.084C299.244 388.016 301.543 377.109 302.248 366.024C300.132 369.044 299.456 369.611 295.931 370.926C292.243 372.303 288.695 373.932 284.974 375.215C283.708 375.652 281.732 375.925 280.694 376.64C278.779 377.959 280.037 376.463 279.426 379.03C278.773 381.773 278.649 385.065 278.476 387.884C277.661 401.11 273.997 414.242 272.307 427.398C271.899 430.575 272.481 444.059 267.014 439.81C262.804 436.537 262.887 426.257 262.288 421.442C261.491 415.023 261.935 408.424 262.061 401.966C262.205 394.612 262.329 386.898 264.084 379.717C260.943 379.18 256.576 380.644 253.416 380.89C250.68 381.103 247.953 381.239 245.231 381.388C238.743 381.745 232.058 382.029 225.46 381.901C224.258 381.878 216.41 380.779 215.407 381.665C215.081 381.953 214.982 385.909 214.921 386.393C214.69 388.211 214.377 390.028 214.143 391.835C213.398 397.615 212.725 403.822 212.938 409.6Z"
    fill="black"
  />
  <path
    fill-rule="evenodd"
    clip-rule="evenodd"
    d="M329.484 464.528C334.437 466.464 339.693 467.166 344.687 468.929C349.152 470.506 353.299 472.625 357.695 474.227C357.952 472.187 358.089 468.734 357.336 466.812C356.27 464.09 353.464 464.023 350.701 463.054C343.975 460.694 336.901 460.197 330.225 457.441C331.368 459.641 330.858 462.554 329.484 464.528ZM414.975 457.411C404.278 457.725 394.057 460.214 383.516 461.753C378.386 462.502 373.252 463.17 368.118 463.869C366.142 464.138 362.541 463.821 361.105 465.531C359.914 466.948 361.219 471.784 360.69 473.861C362.852 474.021 366.69 472.001 369.037 471.666C372.691 471.147 376.296 470.419 379.988 470.188C385.835 469.819 391.579 469.506 397.416 468.855C403.352 468.194 409.096 466.964 415.079 466.515C417.987 466.296 419.157 466.841 419.328 463.771C419.395 462.57 419.56 460.561 419.223 459.377C419.761 457.922 419.284 457.215 417.791 457.257C416.844 457.15 415.905 457.202 414.975 457.411ZM394.287 447.612C397.18 447.341 400.084 446.951 402.984 446.788C403.572 446.755 406.555 446.935 407.042 446.388C407.731 445.615 406.963 442.786 406.837 441.911C406.407 438.935 405.931 437.204 402.685 437.198C399.945 437.191 397.108 437.771 394.379 438.038C381.99 439.252 369.664 439.764 357.412 442.07C358.158 445.247 359.004 448.523 358.112 451.771C363.99 452.074 370.443 450.943 376.187 449.783C382.058 448.597 388.287 448.009 394.287 447.612ZM374.679 417.709C370.252 417.729 365.574 419.679 361.207 419.244C361.141 420.057 362.539 419.382 362.925 420.143C363.75 420.145 364.037 420.414 363.785 420.951C363.801 421.318 363.613 421.533 363.223 421.595C363.03 421.612 362.837 421.628 362.645 421.645C361.801 421.673 361.662 422.242 362.231 423.355C361.987 424.735 362.353 426.487 362.406 427.871C370.255 426.803 377.881 425.692 385.786 425.215C389.517 424.99 393.246 424.991 396.974 424.684C401.074 424.346 405.551 425.071 409.559 424.303C411.703 423.892 411.478 423.921 411.322 421.134C411.227 419.44 411.262 417.43 409.884 416.195C407.581 414.132 402.338 415.324 399.585 415.397C391.293 415.616 382.861 416.387 374.679 417.709ZM379.21 457.511C391.068 456.434 402.836 454.075 414.761 454.075C413.918 453.233 412.081 453.016 411.032 452.556C409.835 452.032 408.706 450.917 407.537 450.458C405.191 449.54 402.803 450.816 400.393 451.368C394.579 452.699 388.615 452.744 382.792 454.05C376.772 455.4 370.674 456.644 364.543 457.33C361.624 457.657 358.492 458.319 355.607 457.548C355.373 457.381 355.138 457.213 354.904 457.046C354.652 455.972 353.952 455.686 352.804 456.186C351.346 455.908 349.49 456.267 348.022 456.303C347.962 456.889 353.385 458.728 354.419 459.184C356.91 460.281 358.599 461.083 361.26 460.614C367.25 459.555 373.143 458.292 379.21 457.511ZM337.497 422.843C337.961 424.649 339.907 423.827 341.582 424.026C343.83 424.293 346.067 425.069 348.245 425.653C352.2 426.716 356.157 427.764 360.095 428.888C359.94 427.297 360.292 423.676 359.451 422.265C358.569 420.786 354.387 420.138 352.44 419.686C347.532 418.55 342.289 419.197 337.303 419.436C337.391 420.57 337.456 421.705 337.497 422.843ZM384.645 434.144C389.302 433.75 393.964 433.443 398.634 433.279C403.974 433.092 400.093 432.239 399.98 428.982C392.962 430.101 385.882 430.322 378.886 431.279C373.09 432.073 366.185 434.145 360.273 433.032C357.485 432.507 354.638 432.305 351.671 432.008C348.872 431.728 346.232 430.425 343.468 430.101C340.364 429.737 337.194 431.481 334.107 431.942C332.799 432.138 332.494 433.025 331.876 431.45C331.236 429.816 333.071 428.482 333.794 427.505C334.637 426.364 334.287 428.216 334.756 426.434C334.887 425.935 334.531 424.68 334.466 424.143C334.3 422.783 333.873 421.307 333.806 419.95C333.745 418.703 333.734 416.8 335.088 416.073C335.913 415.629 336.499 416.276 337.219 416.151C342.839 415.174 349.45 415.093 355.149 416.037C361.328 417.059 366.646 414.353 372.736 413.255C379.881 411.968 387.1 411.775 394.306 411.231C400.468 410.766 411.726 408.354 414.072 416.224C414.737 418.454 415.706 424.593 413.917 426.49C411.571 428.982 406.137 428.187 403.103 428.835C403.557 430.125 404.908 431.004 404.44 432.541C408.693 432.742 409.445 436.759 410.111 440.508C410.8 444.388 409.456 445.93 413.164 447.95C418.331 450.766 423.805 453.609 423.704 460.315C423.653 463.686 423.276 468.771 419.814 470.52C416.428 472.231 410.913 471.942 407.181 472.563C399.954 473.766 392.701 475.178 385.429 475.901C377.687 476.67 369.816 477.302 362.06 477.646C357.834 477.834 354.184 478.472 350.103 477.05C346.091 475.652 342.166 474.631 338.026 473.593C333.939 472.57 321.428 471.191 325.074 464.201C325.657 463.083 327.651 462.194 327.973 461.137C328.492 459.431 326.738 458.099 326.811 456.558C326.945 453.738 330.127 453.384 332.324 453.384C328.558 451.029 333.601 448.24 333.571 446.241C333.518 442.718 329.137 440.431 328.889 437.478C328.286 430.29 351.085 437.774 354.594 439.328C351.893 443.333 339.362 439.868 335.63 439.261C336.139 440.598 336.626 441.8 336.773 443.169C336.893 444.285 336.467 445.56 336.857 446.683C337.473 448.459 337.451 448.119 339.632 448.603C341.245 448.961 342.84 449.375 344.448 449.754C346.918 450.337 350.803 451.901 353.25 451.815C355.397 451.74 354.973 452.406 355.366 450.022C355.578 448.741 355.217 447.379 355.001 446.124C354.55 443.493 353.89 441.004 356.188 439.117C358.378 437.317 362.995 436.46 365.682 435.825C371.645 434.417 378.527 434.071 384.645 434.144Z"
    fill="black"
  />
  <path
    fill-rule="evenodd"
    clip-rule="evenodd"
    d="M413.02 389.248C406.544 388.163 399.964 387.896 393.412 388.224C393.767 389.846 394.122 391.467 394.478 393.087C400.616 391.507 406.843 390.58 413.02 389.248ZM360.361 401.825C357.764 401.635 359.571 402.796 360.212 404.497C361 406.585 360.831 409.225 361.012 411.423C368.611 408.526 377.452 406.83 385.531 405.855C389.362 405.393 393.25 405.26 397.102 405.063C398.241 405.004 402.354 405.481 403.187 404.715C403.806 404.145 403.372 401.002 402.777 400.308C399.544 396.539 387.044 399.793 382.522 400.131C375.107 400.685 367.827 402.01 360.361 401.825ZM371.153 391.724C377.882 392.371 384.378 392.309 391.107 393.317C390.597 389.04 391.206 387.949 386.355 387.721C382.031 387.52 377.721 387.356 373.418 387.358C363.74 387.364 354.085 387.179 344.397 387.179V391.525C353.357 390.608 362.175 392.265 371.153 391.724ZM338.799 407.708C343.045 407.69 347.059 409.292 351.305 409.707C353.847 409.955 353.049 410.271 354.812 411.547C357.558 413.535 358.349 412.476 358.005 409.775C356.838 400.637 345.269 402.686 338.602 402.178C339.04 404.357 338.033 406.205 336.55 407.708H338.799ZM384.696 395.976C378.589 396.075 372.474 396.422 366.409 396.295C363.694 396.239 360.177 395.701 357.517 396.164C355.567 396.502 353.937 397.495 351.8 397.864C354.94 399.555 356.532 398.413 359.833 398.028C363.131 397.644 366.479 397.651 369.791 397.451C375.229 397.122 381.027 395.819 386.385 396.173C386.483 395.418 385.921 395.352 384.696 395.976ZM336.254 415.766C333.451 415.76 337.307 412.573 337.813 412.257C334.711 412.257 333.96 410.396 334.858 407.407C335.705 404.591 336.332 405.453 334.201 403.108C332.597 401.343 332.355 400.042 334.245 398.068C336.169 396.06 340.067 396.628 341.772 394.97C344.674 392.149 340.928 386.529 344.95 384.368C347.669 382.908 352.052 383.088 355.054 382.78C357.955 382.481 360.958 382.424 363.879 382.384C370.245 382.297 376.858 383.365 383.196 383.953C385.507 384.166 388.105 385.1 390.381 385.102C392.703 385.104 395.135 384.587 397.532 384.647C400.319 384.717 403.004 384.511 405.878 384.968C408.08 385.319 413.221 385.504 414.904 387.141C420.512 392.596 407.213 395.101 404.925 395.713C407.254 398.265 407.157 401.637 406.806 404.849C407.915 404.849 409.826 404.367 410.399 405.61C411.112 407.154 408.474 407.555 407.85 407.735C404.262 408.771 400.063 408.487 396.365 408.864C388.973 409.616 381.669 410.05 374.354 411.451C370.788 412.133 367.244 412.978 363.682 413.642C363.067 413.757 362.448 413.849 361.827 413.918C360.873 413.837 360.565 414.435 360.901 415.716C359.912 416.199 356.225 414.996 355.085 414.812C348.559 413.753 342.72 414.192 336.254 415.766Z"
    fill="black"
  />
  <path
    fill-rule="evenodd"
    clip-rule="evenodd"
    d="M468.047 479.144C463.838 482.457 459.925 485.583 455.366 488.461C458.588 488.361 469.306 483.221 468.047 479.144ZM466.404 473.745C464.106 471.771 461.823 471.972 458.98 471.374C456.361 470.823 453.816 469.874 451.203 469.242C449.152 468.747 447.122 468.077 445.078 467.608C442.192 466.947 441.908 467.675 439.253 469.187C429.842 474.551 419.309 478.241 409.396 482.595C412.306 485.157 418.854 485.268 422.492 486.085C425.148 486.68 427.675 487.496 430.219 488.439C432.588 489.319 436.405 491.342 438.903 491.409C441.011 491.466 442.726 489.391 444.541 488.273C446.93 486.802 449.307 485.357 451.714 483.923C456.807 480.888 461.57 477.169 466.404 473.745ZM423.868 495.472C422.782 494.427 419.511 494.472 418.149 494.153C415.465 493.526 412.821 492.875 410.102 492.404C405.689 491.64 398.718 491.299 398.239 485.573C397.839 480.815 403.588 479.687 406.95 478.075C412.007 475.65 417.166 473.412 422.35 471.274C427.211 469.27 432.143 467.574 437.093 465.842C438.058 465.505 438.842 465.551 439.63 464.778C440.252 464.169 440.06 462.985 440.741 462.348C442.301 460.889 444.326 461.657 446.201 462.031C450.458 462.88 454.879 463.995 458.938 465.571C463.157 467.208 466.93 467.549 467.943 472.332C470.1 471.32 471.722 471.173 471.464 474.146C471.389 475.02 470.754 475.97 470.602 476.871C470.378 478.2 470.77 479.6 470.548 480.932C469.741 485.775 463.211 489.362 459.165 491.264C454.176 493.608 447.738 497.073 442.167 497.531C436.231 498.019 429.762 495.687 423.868 495.472Z"
    fill="black"
  />
  <path
    fill-rule="evenodd"
    clip-rule="evenodd"
    d="M348.309 415.127C346.539 415.138 344.769 415.15 343 415.161C344.765 414.829 346.536 414.825 348.309 415.127Z"
    fill="black"
  />
  <path
    fill-rule="evenodd"
    clip-rule="evenodd"
    d="M244.772 227.871C244.241 228.755 243.711 229.64 243.179 230.525C243.36 229.385 243.765 228.407 244.772 227.871Z"
    fill="black"
  />
  <path
    fill-rule="evenodd"
    clip-rule="evenodd"
    d="M348.309 440.506C349.373 440.515 350.437 440.523 351.495 440.533C350.429 440.525 349.369 440.516 348.309 440.506Z"
    fill="black"
  />
  <path
    fill-rule="evenodd"
    clip-rule="evenodd"
    d="M372.733 382.745C371.494 382.678 370.255 382.611 369.017 382.544C370.255 382.611 371.494 382.678 372.733 382.745Z"
    fill="black"
  />
  <path
    fill-rule="evenodd"
    clip-rule="evenodd"
    d="M351.495 415.153C350.432 415.143 349.37 415.134 348.309 415.124C349.375 414.833 350.437 414.843 351.495 415.153Z"
    fill="black"
  />
  <path
    fill-rule="evenodd"
    clip-rule="evenodd"
    d="M393.751 264.507C393.722 263.444 393.691 262.382 393.661 261.321C393.692 262.384 393.722 263.445 393.751 264.507Z"
    fill="black"
  />
  <path
    fill-rule="evenodd"
    clip-rule="evenodd"
    d="M213.213 424.856C213.191 423.971 213.169 423.085 213.147 422.201C213.169 423.088 213.191 423.972 213.213 424.856Z"
    fill="black"
  />
  <path
    fill-rule="evenodd"
    clip-rule="evenodd"
    d="M242.117 381.582C242.828 381.582 243.536 381.583 244.241 381.584C243.53 381.584 242.823 381.583 242.117 381.582Z"
    fill="black"
  />
  <path
    fill-rule="evenodd"
    clip-rule="evenodd"
    d="M337.159 190.873C336.274 190.937 335.388 191.001 334.504 191.065C335.389 191.001 336.274 190.937 337.159 190.873Z"
    fill="black"
  />
  <path
    fill-rule="evenodd"
    clip-rule="evenodd"
    d="M404.06 384.779C402.998 384.772 401.935 384.766 400.874 384.759C401.935 384.766 402.998 384.772 404.06 384.779Z"
    fill="black"
  />
  <path
    fill-rule="evenodd"
    clip-rule="evenodd"
    d="M314.633 450.342C314.606 449.633 314.579 448.923 314.554 448.218C314.58 448.928 314.606 449.636 314.633 450.342Z"
    fill="black"
  />
  <path
    fill-rule="evenodd"
    clip-rule="evenodd"
    d="M315.684 423.263C315.665 422.555 315.646 421.846 315.626 421.139C315.646 421.848 315.665 422.555 315.684 423.263Z"
    fill="black"
  />
  <path
    fill-rule="evenodd"
    clip-rule="evenodd"
    d="M297.564 435.475C297.589 436.184 297.615 436.894 297.64 437.599C297.615 436.889 297.589 436.183 297.564 435.475Z"
    fill="black"
  />
  <path
    fill-rule="evenodd"
    clip-rule="evenodd"
    d="M246.365 381.063C246.898 381.056 247.43 381.048 247.958 381.041C247.424 381.048 246.895 381.056 246.365 381.063Z"
    fill="black"
  />
  <path
    fill-rule="evenodd"
    clip-rule="evenodd"
    d="M400.343 408.696C400.875 408.674 401.407 408.65 401.936 408.627C401.402 408.651 400.872 408.674 400.343 408.696Z"
    fill="black"
  />
  <path
    fill-rule="evenodd"
    clip-rule="evenodd"
    d="M298.619 452.466C298.649 453.175 298.68 453.884 298.71 454.59C298.68 453.879 298.649 453.173 298.619 452.466Z"
    fill="black"
  />
  <path
    fill-rule="evenodd"
    clip-rule="evenodd"
    d="M355.531 448.749C355.495 449.459 355.459 450.167 355.423 450.873C355.459 450.164 355.495 449.457 355.531 448.749Z"
    fill="black"
  />
  <path
    fill-rule="evenodd"
    clip-rule="evenodd"
    d="M294.334 132.376C293.584 132.28 292.833 132.186 292.083 132.09C292.827 132.262 293.642 131.624 294.334 132.376Z"
    fill="black"
  />
  <path
    fill-rule="evenodd"
    clip-rule="evenodd"
    d="M262.059 404.68C262.039 405.389 262.018 406.097 261.998 406.804C262.017 406.093 262.038 405.386 262.059 404.68Z"
    fill="black"
  />
  <path
    fill-rule="evenodd"
    clip-rule="evenodd"
    d="M216.42 469.457C216.384 468.748 216.347 468.04 216.311 467.333C216.348 468.041 216.384 468.749 216.42 469.457Z"
    fill="black"
  />
  <path
    fill-rule="evenodd"
    clip-rule="evenodd"
    d="M388.131 409.74C388.664 409.729 389.196 409.717 389.724 409.707C389.19 409.719 388.66 409.73 388.131 409.74Z"
    fill="black"
  />
  <path
    fill-rule="evenodd"
    clip-rule="evenodd"
    d="M207.865 280.966C207.869 281.676 207.873 282.385 207.876 283.09C207.872 282.38 207.868 281.674 207.865 280.966Z"
    fill="black"
  />
  <path
    fill-rule="evenodd"
    clip-rule="evenodd"
    d="M196.724 440.254C196.722 440.963 196.72 441.673 196.716 442.378C196.718 441.668 196.721 440.961 196.724 440.254Z"
    fill="black"
  />
  <path
    fill-rule="evenodd"
    clip-rule="evenodd"
    d="M329.058 436.006C329.039 436.715 329.02 437.425 329 438.13C328.709 437.402 328.742 436.697 329.058 436.006Z"
    fill="black"
  />
  <path
    fill-rule="evenodd"
    clip-rule="evenodd"
    d="M315.133 432.821C315.127 432.112 315.122 431.403 315.116 430.697C315.122 431.407 315.127 432.113 315.133 432.821Z"
    fill="black"
  />
  <path
    fill-rule="evenodd"
    clip-rule="evenodd"
    d="M423.705 495.717C424.238 495.732 424.771 495.746 425.298 495.761C424.763 495.747 424.234 495.732 423.705 495.717Z"
    fill="black"
  />
  <path
    fill-rule="evenodd"
    clip-rule="evenodd"
    d="M404.591 428.316C404.946 428.31 405.302 428.304 405.653 428.298C405.295 428.304 404.943 428.31 404.591 428.316Z"
    fill="black"
  />
  <path
    fill-rule="evenodd"
    clip-rule="evenodd"
    d="M391.317 429.901C391.673 429.9 392.028 429.9 392.379 429.899C392.023 429.9 391.669 429.901 391.317 429.901Z"
    fill="black"
  />
  <path
    fill-rule="evenodd"
    clip-rule="evenodd"
    d="M184.54 433.352C184.519 432.821 184.497 432.289 184.477 431.759C184.498 432.291 184.52 432.822 184.54 433.352Z"
    fill="black"
  />
  <path
    fill-rule="evenodd"
    clip-rule="evenodd"
    d="M401.936 432.948C401.474 433.415 400.881 433.14 400.343 433.169C400.874 433.096 401.405 433.022 401.936 432.948Z"
    fill="black"
  />
  <path
    fill-rule="evenodd"
    clip-rule="evenodd"
    d="M338.752 415.961C338.051 416.292 337.342 416.338 336.628 415.984C337.336 415.976 338.044 415.969 338.752 415.961Z"
    fill="black"
  />
  <path
    fill-rule="evenodd"
    clip-rule="evenodd"
    d="M384.945 434.157C384.237 434.151 383.529 434.145 382.821 434.139C383.53 434.145 384.238 434.151 384.945 434.157Z"
    fill="black"
  />
  <path
    fill-rule="evenodd"
    clip-rule="evenodd"
    d="M355.212 415.661C354.504 415.597 353.795 415.533 353.088 415.468C353.795 415.533 354.504 415.597 355.212 415.661Z"
    fill="black"
  />
  <path
    fill-rule="evenodd"
    clip-rule="evenodd"
    d="M193.024 413.175C193.012 413.708 192.997 414.239 192.983 414.768C192.996 414.235 193.01 413.704 193.024 413.175Z"
    fill="black"
  />
  <path
    fill-rule="evenodd"
    clip-rule="evenodd"
    d="M315.083 441.847C315.111 441.315 315.138 440.783 315.165 440.254C315.138 440.787 315.111 441.317 315.083 441.847Z"
    fill="black"
  />
  <path
    fill-rule="evenodd"
    clip-rule="evenodd"
    d="M388.131 411.227C387.423 411.287 386.715 411.346 386.007 411.406C386.716 411.346 387.423 411.287 388.131 411.227Z"
    fill="black"
  />
  <path
    fill-rule="evenodd"
    clip-rule="evenodd"
    d="M213.202 409.458C213.187 408.926 213.173 408.394 213.158 407.865C213.173 408.399 213.187 408.928 213.202 409.458Z"
    fill="black"
  />
  <path
    fill-rule="evenodd"
    clip-rule="evenodd"
    d="M301.913 368.575C301.871 369.107 301.829 369.638 301.788 370.167C301.83 369.635 301.871 369.106 301.913 368.575Z"
    fill="black"
  />
  <path
    fill-rule="evenodd"
    clip-rule="evenodd"
    d="M398.75 384.641C398.041 385.009 397.334 384.963 396.626 384.638C397.334 384.639 398.043 384.64 398.75 384.641Z"
    fill="black"
  />
  <path
    fill-rule="evenodd"
    clip-rule="evenodd"
    d="M314.64 458.306C314.609 457.774 314.577 457.244 314.546 456.714C314.577 457.246 314.609 457.776 314.64 458.306Z"
    fill="black"
  />
  <path
    fill-rule="evenodd"
    clip-rule="evenodd"
    d="M314.626 462.554C314.604 462.023 314.581 461.491 314.56 460.961C314.582 461.493 314.605 462.023 314.626 462.554Z"
    fill="black"
  />
  <path
    fill-rule="evenodd"
    clip-rule="evenodd"
    d="M214.231 392.468C214.239 391.936 214.246 391.404 214.253 390.875C214.245 391.408 214.238 391.937 214.231 392.468Z"
    fill="black"
  />
  <path
    fill-rule="evenodd"
    clip-rule="evenodd"
    d="M365.3 477.17C365.655 477.16 366.011 477.15 366.362 477.141C366.004 477.152 365.652 477.16 365.3 477.17Z"
    fill="black"
  />
  <path
    fill-rule="evenodd"
    clip-rule="evenodd"
    d="M194.108 481.669C194.08 481.137 194.051 480.606 194.022 480.076C194.052 480.607 194.08 481.138 194.108 481.669Z"
    fill="black"
  />
  <path
    fill-rule="evenodd"
    clip-rule="evenodd"
    d="M309.018 486.171C309.374 486.178 309.73 486.185 310.08 486.193C309.723 486.186 309.371 486.178 309.018 486.171Z"
    fill="black"
  />
  <path
    fill-rule="evenodd"
    clip-rule="evenodd"
    d="M386.007 384.318C385.299 384.264 384.591 384.211 383.883 384.158C384.591 384.211 385.299 384.264 386.007 384.318Z"
    fill="black"
  />
  <path
    fill-rule="evenodd"
    clip-rule="evenodd"
    d="M389.724 384.879L388.131 384.658L389.724 384.879Z"
    fill="black"
  />
  <path
    fill-rule="evenodd"
    clip-rule="evenodd"
    d="M309.239 440.785C309.27 439.192 309.299 437.599 309.328 436.006C309.298 437.6 309.269 439.192 309.239 440.785Z"
    fill="black"
  />
  <path
    fill-rule="evenodd"
    clip-rule="evenodd"
    d="M267.841 382.38C267.859 383.619 267.877 384.859 267.897 386.096C267.878 384.855 267.86 383.617 267.841 382.38Z"
    fill="black"
  />
  <path
    fill-rule="evenodd"
    clip-rule="evenodd"
    d="M176.278 460.148C175.392 460.159 174.504 460.17 173.624 460.181C174.512 460.171 175.395 460.159 176.278 460.148Z"
    fill="black"
  />
  <path
    fill-rule="evenodd"
    clip-rule="evenodd"
    d="M249.02 354.525C248.133 354.51 247.246 354.496 246.365 354.483C247.255 354.498 248.138 354.512 249.02 354.525Z"
    fill="black"
  />
  <path
    fill-rule="evenodd"
    clip-rule="evenodd"
    d="M226.188 375.212C227.074 375.212 227.959 375.211 228.843 375.21C227.958 375.21 227.074 375.212 226.188 375.212Z"
    fill="black"
  />
  <path
    fill-rule="evenodd"
    clip-rule="evenodd"
    d="M237.869 353.956C237.159 353.967 236.449 353.979 235.746 353.991C236.458 353.979 237.164 353.967 237.869 353.956Z"
    fill="black"
  />
  <path
    fill-rule="evenodd"
    clip-rule="evenodd"
    d="M180.526 460.171C179.816 460.166 179.106 460.163 178.402 460.159C179.115 460.163 179.821 460.166 180.526 460.171Z"
    fill="black"
  />
  <path
    fill-rule="evenodd"
    clip-rule="evenodd"
    d="M276.099 188.937C276.983 188.876 277.869 188.814 278.753 188.753C277.868 188.814 276.983 188.876 276.099 188.937Z"
    fill="black"
  />
  <path
    fill-rule="evenodd"
    clip-rule="evenodd"
    d="M287.996 251.233C288.029 250.348 288.061 249.462 288.094 248.578C288.061 249.464 288.029 250.348 287.996 251.233Z"
    fill="black"
  />
  <path
    fill-rule="evenodd"
    clip-rule="evenodd"
    d="M266.542 259.462C266.009 259.462 265.476 259.463 264.949 259.463C265.483 259.463 266.012 259.463 266.542 259.462Z"
    fill="black"
  />
  <path
    fill-rule="evenodd"
    clip-rule="evenodd"
    d="M221.41 352.372C220.877 352.378 220.344 352.383 219.817 352.389C220.352 352.384 220.88 352.378 221.41 352.372Z"
    fill="black"
  />
  <path
    fill-rule="evenodd"
    clip-rule="evenodd"
    d="M209.198 374.064C209.906 374.121 210.614 374.179 211.322 374.236C210.613 374.179 209.906 374.121 209.198 374.064Z"
    fill="black"
  />
  <path
    fill-rule="evenodd"
    clip-rule="evenodd"
    d="M207.854 400.963C207.865 400.254 207.877 399.546 207.887 398.839C207.876 399.549 207.865 400.256 207.854 400.963Z"
    fill="black"
  />
  <path
    fill-rule="evenodd"
    clip-rule="evenodd"
    d="M268.665 372.661C269.373 372.591 270.081 372.522 270.789 372.453C270.081 372.522 269.373 372.591 268.665 372.661Z"
    fill="black"
  />
  <path
    fill-rule="evenodd"
    clip-rule="evenodd"
    d="M317.185 360.079C317.227 359.371 317.269 358.662 317.311 357.955C317.269 358.665 317.227 359.372 317.185 360.079Z"
    fill="black"
  />
  <path
    fill-rule="evenodd"
    clip-rule="evenodd"
    d="M326.54 262.2C327.248 262.144 327.955 262.089 328.663 262.035C327.955 262.089 327.248 262.144 326.54 262.2Z"
    fill="black"
  />
  <path
    fill-rule="evenodd"
    clip-rule="evenodd"
    d="M254.329 355.043C253.797 355.038 253.264 355.032 252.736 355.028C253.271 355.032 253.8 355.038 254.329 355.043Z"
    fill="black"
  />
  <path
    fill-rule="evenodd"
    clip-rule="evenodd"
    d="M207.909 440.785C207.883 440.253 207.857 439.721 207.831 439.192C207.857 439.724 207.883 440.254 207.909 440.785Z"
    fill="black"
  />
  <path
    fill-rule="evenodd"
    clip-rule="evenodd"
    d="M267.44 413.706C268.6 416.584 267.949 414.546 267.979 415.21C266.99 415.343 266.81 414.841 267.44 413.706Z"
    fill="black"
  />
  <path
    fill-rule="evenodd"
    clip-rule="evenodd"
    d="M218.755 352.409C218.223 352.39 217.689 352.371 217.162 352.351C217.698 352.37 218.226 352.389 218.755 352.409Z"
    fill="black"
  />
  <path
    fill-rule="evenodd"
    clip-rule="evenodd"
    d="M327.286 298.488C327.319 297.78 327.354 297.071 327.386 296.364C327.353 297.073 327.319 297.781 327.286 298.488Z"
    fill="black"
  />
  <path
    fill-rule="evenodd"
    clip-rule="evenodd"
    d="M207.873 435.475C207.872 434.767 207.87 434.059 207.868 433.352C207.87 434.061 207.871 434.769 207.873 435.475Z"
    fill="black"
  />
  <path
    fill-rule="evenodd"
    clip-rule="evenodd"
    d="M207.815 419.547C207.852 419.015 207.889 418.484 207.926 417.954C207.889 418.486 207.852 419.017 207.815 419.547Z"
    fill="black"
  />
  <path
    fill-rule="evenodd"
    clip-rule="evenodd"
    d="M318.235 349.991C318.285 349.46 318.335 348.928 318.384 348.398C318.335 348.93 318.285 349.461 318.235 349.991Z"
    fill="black"
  />
  <path
    fill-rule="evenodd"
    clip-rule="evenodd"
    d="M200.897 421.139C200.944 421.671 200.992 422.203 201.039 422.732C200.991 422.201 200.944 421.67 200.897 421.139Z"
    fill="black"
  />
  <path
    fill-rule="evenodd"
    clip-rule="evenodd"
    d="M199.828 416.892C199.88 417.423 199.932 417.955 199.985 418.485C199.932 417.952 199.88 417.422 199.828 416.892Z"
    fill="black"
  />
  <path
    fill-rule="evenodd"
    clip-rule="evenodd"
    d="M306.039 344.15C306.078 343.62 306.118 343.088 306.158 342.558C306.117 343.09 306.078 343.62 306.039 344.15Z"
    fill="black"
  />
  <path
    fill-rule="evenodd"
    clip-rule="evenodd"
    d="M35.0435 416.179C35.7507 416.123 36.459 416.067 37.1673 416.012C36.4574 416.067 35.7502 416.123 35.0435 416.179Z"
    fill="black"
  />
  <path
    fill-rule="evenodd"
    clip-rule="evenodd"
    d="M301.35 429.104C301.329 429.636 301.308 430.169 301.289 430.697C301.309 430.163 301.33 429.634 301.35 429.104Z"
    fill="black"
  />
  <path
    fill-rule="evenodd"
    clip-rule="evenodd"
    d="M309.756 430.697C309.795 430.166 309.834 429.634 309.874 429.104C309.834 429.636 309.795 430.166 309.756 430.697Z"
    fill="black"
  />
  <path
    fill-rule="evenodd"
    clip-rule="evenodd"
    d="M306.545 342.027C306.601 341.495 306.658 340.964 306.713 340.434C306.657 340.966 306.601 341.496 306.545 342.027Z"
    fill="black"
  />
  <path
    fill-rule="evenodd"
    clip-rule="evenodd"
    d="M39.291 415.669C39.9993 415.599 40.7076 415.529 41.4148 415.46C40.7076 415.529 39.9983 415.599 39.291 415.669Z"
    fill="black"
  />
  <path
    fill-rule="evenodd"
    clip-rule="evenodd"
    d="M264.417 354.498C264.062 354.502 263.706 354.506 263.355 354.51C263.713 354.506 264.065 354.502 264.417 354.498Z"
    fill="black"
  />
  <path
    fill-rule="evenodd"
    clip-rule="evenodd"
    d="M207.873 414.768C207.872 414.236 207.87 413.704 207.868 413.175C207.87 413.708 207.872 414.237 207.873 414.768Z"
    fill="black"
  />
  <path
    fill-rule="evenodd"
    clip-rule="evenodd"
    d="M310.918 413.706C310.73 413.157 310.637 412.616 311.001 412.113C310.973 412.645 310.946 413.176 310.918 413.706Z"
    fill="black"
  />
  <path
    fill-rule="evenodd"
    clip-rule="evenodd"
    d="M301.873 403.618C301.858 404.149 301.842 404.681 301.828 405.211C301.844 404.678 301.858 404.148 301.873 403.618Z"
    fill="black"
  />
  <path
    fill-rule="evenodd"
    clip-rule="evenodd"
    d="M302.332 456.183C302.364 456.714 302.398 457.246 302.431 457.776C302.398 457.244 302.364 456.713 302.332 456.183Z"
    fill="black"
  />
  <path
    fill-rule="evenodd"
    clip-rule="evenodd"
    d="M341.407 263.066C341.938 263.142 342.469 263.217 343 263.293C342.468 263.217 341.938 263.141 341.407 263.066Z"
    fill="black"
  />
  <path
    fill-rule="evenodd"
    clip-rule="evenodd"
    d="M339.283 263.116C339.995 263.159 340.778 262.816 341.407 263.318L339.283 263.116Z"
    fill="black"
  />
  <path
    fill-rule="evenodd"
    clip-rule="evenodd"
    d="M248.489 375.217C249.197 375.214 249.905 375.21 250.613 375.206C249.905 375.21 249.197 375.214 248.489 375.217Z"
    fill="black"
  />
  <path
    fill-rule="evenodd"
    clip-rule="evenodd"
    d="M264.417 262.556L266.541 262.741C265.832 262.679 265.126 262.617 264.417 262.556Z"
    fill="black"
  />
  <path
    fill-rule="evenodd"
    clip-rule="evenodd"
    d="M229.375 375.073C230.083 375.076 230.791 375.079 231.498 375.083C230.787 375.424 230.08 375.458 229.375 375.073Z"
    fill="black"
  />
  <path
    fill-rule="evenodd"
    clip-rule="evenodd"
    d="M210.055 464.147C210.015 463.615 209.974 463.083 209.934 462.554C209.974 463.087 210.015 463.617 210.055 464.147Z"
    fill="black"
  />
  <path
    fill-rule="evenodd"
    clip-rule="evenodd"
    d="M287.502 263.445C287.51 262.913 287.518 262.382 287.526 261.852C287.518 262.384 287.51 262.915 287.502 263.445Z"
    fill="black"
  />
  <path
    fill-rule="evenodd"
    clip-rule="evenodd"
    d="M242.648 375.297C243.357 375.24 244.065 375.183 244.772 375.125C244.064 375.183 243.357 375.24 242.648 375.297Z"
    fill="black"
  />
  <path
    fill-rule="evenodd"
    clip-rule="evenodd"
    d="M302.895 468.926C302.906 469.457 302.918 469.989 302.93 470.519C302.918 469.986 302.906 469.456 302.895 468.926Z"
    fill="black"
  />
  <path
    fill-rule="evenodd"
    clip-rule="evenodd"
    d="M304.771 250.007C305.478 249.939 306.187 249.872 306.894 249.804C306.187 249.872 305.478 249.939 304.771 250.007Z"
    fill="black"
  />
  <path
    fill-rule="evenodd"
    clip-rule="evenodd"
    d="M313.989 385.565C314.038 385.034 314.087 384.502 314.135 383.972C314.086 384.504 314.038 385.034 313.989 385.565Z"
    fill="black"
  />
  <path
    fill-rule="evenodd"
    clip-rule="evenodd"
    d="M338.426 243.799C338.467 243.267 338.507 242.736 338.547 242.206C338.507 242.738 338.466 243.269 338.426 243.799Z"
    fill="black"
  />
  <path
    fill-rule="evenodd"
    clip-rule="evenodd"
    d="M288.03 198.137C288.04 198.668 288.049 199.2 288.061 199.73C288.05 199.197 288.04 198.667 288.03 198.137Z"
    fill="black"
  />
  <path
    fill-rule="evenodd"
    clip-rule="evenodd"
    d="M269.196 188.225C269.904 188.284 270.613 188.344 271.32 188.402C270.612 188.343 269.904 188.284 269.196 188.225Z"
    fill="black"
  />
  <path
    fill-rule="evenodd"
    clip-rule="evenodd"
    d="M163.004 490.003C163.713 489.933 164.42 489.864 165.128 489.794C164.42 489.864 163.713 489.934 163.004 490.003Z"
    fill="black"
  />
  <path
    fill-rule="evenodd"
    clip-rule="evenodd"
    d="M270.258 183.005C269.903 183.005 269.547 183.004 269.196 183.004C269.553 183.005 269.906 183.005 270.258 183.005Z"
    fill="black"
  />
  <path
    fill-rule="evenodd"
    clip-rule="evenodd"
    d="M139.643 496.918C140.351 496.553 141.059 496.657 141.766 496.921C141.059 496.92 140.35 496.919 139.643 496.918Z"
    fill="black"
  />
  <path
    fill-rule="evenodd"
    clip-rule="evenodd"
    d="M415.21 466.1C416.449 466.037 417.688 465.973 418.927 465.91C417.688 465.973 416.449 466.037 415.21 466.1Z"
    fill="black"
  />
  <path
    fill-rule="evenodd"
    clip-rule="evenodd"
    d="M415.21 456.955C414.499 456.971 413.79 456.987 413.086 457.003C413.797 456.988 414.504 456.971 415.21 456.955Z"
    fill="black"
  />
  <path
    fill-rule="evenodd"
    clip-rule="evenodd"
    d="M404.591 446.424C405.476 446.357 406.361 446.289 407.246 446.222C406.42 446.741 405.476 446.357 404.591 446.424Z"
    fill="black"
  />
  <path
    fill-rule="evenodd"
    clip-rule="evenodd"
    d="M394.502 447.518C395.388 447.454 396.272 447.39 397.157 447.326C396.273 447.39 395.388 447.454 394.502 447.518Z"
    fill="black"
  />
  <path
    fill-rule="evenodd"
    clip-rule="evenodd"
    d="M379.636 457.062C380.344 457.007 381.052 456.951 381.76 456.896C381.052 456.951 380.344 457.007 379.636 457.062Z"
    fill="black"
  />
  <path
    fill-rule="evenodd"
    clip-rule="evenodd"
    d="M383.353 457.063C384.06 457.007 384.769 456.951 385.476 456.895C384.769 456.951 384.06 457.007 383.353 457.063Z"
    fill="black"
  />
  <path
    fill-rule="evenodd"
    clip-rule="evenodd"
    d="M386.007 456.542C386.715 456.479 387.423 456.417 388.131 456.354C387.423 456.417 386.716 456.479 386.007 456.542Z"
    fill="black"
  />
  <path
    fill-rule="evenodd"
    clip-rule="evenodd"
    d="M389.724 438.391C389.191 438.395 388.659 438.398 388.131 438.4C388.666 438.396 389.195 438.394 389.724 438.391Z"
    fill="black"
  />
  <path
    fill-rule="evenodd"
    clip-rule="evenodd"
    d="M402.998 467.642C403.705 467.582 404.414 467.522 405.121 467.462C404.461 467.926 403.714 467.659 402.998 467.642Z"
    fill="black"
  />
  <path
    fill-rule="evenodd"
    clip-rule="evenodd"
    d="M382.821 425.223C383.529 425.156 384.237 425.088 384.945 425.02C384.237 425.088 383.529 425.156 382.821 425.223Z"
    fill="black"
  />
  <path
    fill-rule="evenodd"
    clip-rule="evenodd"
    d="M380.167 416.627C379.634 416.627 379.101 416.626 378.574 416.625C379.109 416.626 379.638 416.627 380.167 416.627Z"
    fill="black"
  />
  <path
    fill-rule="evenodd"
    clip-rule="evenodd"
    d="M374.857 417.686C374.502 417.688 374.146 417.689 373.795 417.69C374.152 417.689 374.504 417.687 374.857 417.686Z"
    fill="black"
  />
  <path
    fill-rule="evenodd"
    clip-rule="evenodd"
    d="M362.114 419.165C361.936 419.601 360.997 419.545 361.055 419.097C361.407 419.12 361.76 419.142 362.114 419.165Z"
    fill="black"
  />
  <path
    fill-rule="evenodd"
    clip-rule="evenodd"
    d="M337.392 421.139C337.414 421.67 337.436 422.202 337.457 422.732C337.435 422.2 337.414 421.669 337.392 421.139Z"
    fill="black"
  />
  <path
    fill-rule="evenodd"
    clip-rule="evenodd"
    d="M409.9 423.954C410.431 423.945 410.962 423.937 411.493 423.927C410.969 424.302 410.437 424.25 409.9 423.954Z"
    fill="black"
  />
  <path
    fill-rule="evenodd"
    clip-rule="evenodd"
    d="M389.724 416.088C389.369 416.093 389.013 416.098 388.662 416.103C389.019 416.098 389.371 416.093 389.724 416.088Z"
    fill="black"
  />
  <path
    fill-rule="evenodd"
    clip-rule="evenodd"
    d="M375.919 449.645C376.627 449.579 377.336 449.513 378.043 449.446C377.334 449.513 376.627 449.579 375.919 449.645Z"
    fill="black"
  />
  <path
    fill-rule="evenodd"
    clip-rule="evenodd"
    d="M367.423 450.7L369.547 450.515L367.423 450.7Z"
    fill="black"
  />
  <path
    fill-rule="evenodd"
    clip-rule="evenodd"
    d="M408.838 466.636C409.546 466.569 410.254 466.503 410.962 466.437C410.254 466.503 409.546 466.569 408.838 466.636Z"
    fill="black"
  />
  <path
    fill-rule="evenodd"
    clip-rule="evenodd"
    d="M383.353 469.833C384.062 469.574 384.771 469.485 385.476 469.839C384.768 469.837 384.06 469.835 383.353 469.833Z"
    fill="black"
  />
  <path
    fill-rule="evenodd"
    clip-rule="evenodd"
    d="M382.227 396.645L381.229 396.3C382.467 396.285 383.706 396.269 384.945 396.254C384.948 396.255 382.37 396.656 382.227 396.645Z"
    fill="black"
  />
  <path
    fill-rule="evenodd"
    clip-rule="evenodd"
    d="M372.733 387.425C371.846 387.424 370.959 387.423 370.078 387.422C370.966 387.423 371.85 387.425 372.733 387.425Z"
    fill="black"
  />
  <path
    fill-rule="evenodd"
    clip-rule="evenodd"
    d="M339.283 407.721C340.166 407.367 341.051 407.436 341.938 407.711C341.052 407.714 340.168 407.717 339.283 407.721Z"
    fill="black"
  />
  <path
    fill-rule="evenodd"
    clip-rule="evenodd"
    d="M392.91 399.095C392.377 399.101 391.844 399.108 391.317 399.114C391.852 399.107 392.38 399.101 392.91 399.095Z"
    fill="black"
  />
  <path
    fill-rule="evenodd"
    clip-rule="evenodd"
    d="M381.759 392.115C382.645 392.173 383.53 392.231 384.414 392.289C383.529 392.23 382.644 392.173 381.759 392.115Z"
    fill="black"
  />
  <path
    fill-rule="evenodd"
    clip-rule="evenodd"
    d="M370.609 397.606C371.494 397.543 372.38 397.481 373.264 397.418C372.38 397.481 371.494 397.543 370.609 397.606Z"
    fill="black"
  />
  <path
    fill-rule="evenodd"
    clip-rule="evenodd"
    d="M377.512 396.54C378.219 396.48 378.927 396.42 379.636 396.36C378.927 396.42 378.219 396.48 377.512 396.54Z"
    fill="black"
  />
  <path
    fill-rule="evenodd"
    clip-rule="evenodd"
    d="M371.671 391.584C372.38 391.642 373.087 391.7 373.795 391.758C373.087 391.7 372.379 391.642 371.671 391.584Z"
    fill="black"
  />
  <path
    fill-rule="evenodd"
    clip-rule="evenodd"
    d="M361.583 401.771C361.227 401.763 360.872 401.756 360.521 401.748C360.878 401.756 361.23 401.763 361.583 401.771Z"
    fill="black"
  />
  <path
    fill-rule="evenodd"
    clip-rule="evenodd"
    d="M372.733 396.483C372.378 396.461 372.022 396.439 371.671 396.417C372.028 396.439 372.381 396.461 372.733 396.483Z"
    fill="black"
  />
  <path
    fill-rule="evenodd"
    clip-rule="evenodd"
    d="M365.83 396.464C365.475 396.454 365.119 396.444 364.769 396.435C365.125 396.445 365.478 396.455 365.83 396.464Z"
    fill="black"
  />
  <path
    fill-rule="evenodd"
    clip-rule="evenodd"
    d="M384.945 395.97C384.945 396.108 386.545 395.41 386.538 396.059L384.945 395.97Z"
    fill="black"
  />
  <path
    fill-rule="evenodd"
    clip-rule="evenodd"
    d="M379.105 387.422C378.749 387.423 378.394 387.424 378.043 387.425C378.4 387.424 378.752 387.423 379.105 387.422Z"
    fill="black"
  />
  <path
    fill-rule="evenodd"
    clip-rule="evenodd"
    d="M190.614 362.243C191.189 359.897 191.033 358.061 193.081 359.56C194.204 360.384 196.057 364.558 195.916 365.972C195.743 367.716 194.948 368.412 193.306 367.857C191.419 367.217 190.671 363.999 190.614 362.243Z"
    fill="black"
  />
  <path
    fill-rule="evenodd"
    clip-rule="evenodd"
    d="M294.061 347.998C298.816 347.998 296.741 353.059 292.778 353.172C290.957 353.224 288.336 352.865 288.927 350.427C289.242 349.126 293.862 347.371 294.061 347.998Z"
    fill="black"
  />
  <path
    fill-rule="evenodd"
    clip-rule="evenodd"
    d="M243.059 357.955C246.492 359.616 241.662 366.909 238.543 365.104C234.55 362.793 241.648 358.996 243.059 357.955Z"
    fill="black"
  />
  <path
    fill-rule="evenodd"
    clip-rule="evenodd"
    d="M234.707 364.858C235.831 366.083 240.894 370.238 238.103 371.909C234.671 373.963 232.059 367.181 234.707 364.858Z"
    fill="black"
  />
  <path
    fill-rule="evenodd"
    clip-rule="evenodd"
    d="M177.17 361.672C176.053 359.513 177.59 353.862 180.999 354.894C184.43 355.935 179.058 361.099 177.17 361.672Z"
    fill="black"
  />
  <path
    fill-rule="evenodd"
    clip-rule="evenodd"
    d="M252.917 362.917C255.143 362.02 254.719 364.672 255.055 365.527C255.437 366.499 257.397 368.866 256.905 369.9C256.176 371.435 254.432 370.457 253.484 369.461C251.824 367.713 251.942 364.911 252.917 362.917Z"
    fill="black"
  />
  <path
    fill-rule="evenodd"
    clip-rule="evenodd"
    d="M218.989 365.374C217.133 365.374 212.704 360.025 215.306 359.127C218.537 358.013 221.238 365.767 218.989 365.374Z"
    fill="black"
  />
  <path
    fill-rule="evenodd"
    clip-rule="evenodd"
    d="M283.112 356.893C284.811 357.312 287.061 362.124 284.499 362.682C281.664 363.301 281.158 358.224 283.112 356.893Z"
    fill="black"
  />
  <path
    fill-rule="evenodd"
    clip-rule="evenodd"
    d="M272.808 365.92C271.475 363.353 271.147 357.859 274.401 362.269C275.106 363.224 275.833 362.838 275.471 364.413C275.155 365.789 273.892 365.92 272.808 365.92Z"
    fill="black"
  />
  <path
    fill-rule="evenodd"
    clip-rule="evenodd"
    d="M202.606 352.646C203.964 354.69 203.563 361.102 200.725 357.31C199.517 355.698 200.349 352.722 202.606 352.646Z"
    fill="black"
  />
  <path
    fill-rule="evenodd"
    clip-rule="evenodd"
    d="M270.889 159.96C273.525 159.279 274.157 165.493 272.619 166.178C270.467 167.137 270.737 160.999 270.889 159.96Z"
    fill="black"
  />
  <path
    fill-rule="evenodd"
    clip-rule="evenodd"
    d="M437.593 475.642C435.146 475.499 431.72 474.831 435.425 473.096C437.776 471.996 441.271 471.919 443.753 472.37C445.465 472.682 448.032 474.1 445.421 475.939C443.892 477.014 439.451 475.694 437.593 475.642Z"
    fill="black"
  />
  <path
    fill-rule="evenodd"
    clip-rule="evenodd"
    d="M434.852 480.076C434.144 479.996 433.437 479.916 432.731 479.837C433.299 478.808 434.946 478.592 434.852 480.076Z"
    fill="black"
  />
  <path
    fill-rule="evenodd"
    clip-rule="evenodd"
    d="M438.041 475.539C438.751 475.555 439.461 475.571 440.165 475.586C439.453 475.571 438.747 475.555 438.041 475.539Z"
    fill="black"
  />
</svg>
