<svg
  width="347"
  height="300"
  viewBox="0 0 347 300"
  fill="none"
  xmlns="http://www.w3.org/2000/svg"
>
  <path
    fill-rule="evenodd"
    clip-rule="evenodd"
    d="M343.515 490.084C342.798 476.753 341.917 463.432 340.861 450.122C338.758 423.611 336.006 397.081 331.425 370.874C326.906 345.016 320.582 319.873 311.469 295.235C307.242 283.802 302.666 274.051 296.025 263.775C289.745 254.06 281.731 247.476 271.748 241.61C262.753 236.327 252.304 227.159 243.677 221.239C240.075 218.77 232.666 218.934 230.194 215.281C226.961 210.494 229.058 203.17 225.797 198.402C222.072 192.948 216.85 188.711 210.963 185.635C204.536 181.282 196.967 179.311 189.379 179.581C178.189 178.902 166.918 182.467 159.734 191.578C156.15 196.126 154.055 201.371 153.766 207.182C153.691 208.691 154.177 209.883 154.975 210.743C154.502 211.378 154.03 212.012 153.561 212.648C152.093 210.471 148.657 209.315 146.369 210.958C138.881 216.335 130.788 220.611 122.245 223.745C120.246 222.8 117.827 223.236 116.115 224.781C115.42 225.407 114.683 225.943 113.913 226.399C110.746 227.257 107.529 227.974 104.265 228.53C103.244 228.702 102.378 229.283 101.722 230.064C100.749 229.155 99.4119 228.719 97.9189 229.287C80.6799 235.863 64.3999 246.076 52.0255 259.911C38.316 275.239 31.1155 294.307 25.6335 313.843C19.6993 334.99 15.907 356.663 12.7218 378.375C9.49429 400.371 6.31548 422.455 4.09495 444.58C2.84506 457.03 2.36847 469.595 2.93424 482.1C3.21607 488.349 3.78673 494.58 4.69563 500.77C4.90743 502.217 5.12923 503.886 5.48619 505.55C4.40105 505.34 3.10857 506.257 3.32866 507.726C4.86017 517.956 17.2242 520.936 25.7515 522.115C39.6998 524.041 53.7204 525.11 67.8026 525.193C81.6413 525.272 95.4775 524.384 109.287 523.588C123.446 522.773 137.604 521.953 151.761 521.123C208.485 517.796 265.214 514.505 321.938 511.176C327.121 510.872 333.038 510.461 337.476 507.453C343.562 503.33 343.875 496.781 343.515 490.084Z"
    fill="white"
  />
  <path
    fill-rule="evenodd"
    clip-rule="evenodd"
    d="M66.9849 375.656C66.788 375.288 67.245 374.956 67.5481 375.222C74.4343 381.267 78.0394 390.976 78.7955 399.95C79.5963 409.467 78.4609 419.32 78.0269 428.83C77.5439 439.426 77.1099 450.027 76.5205 460.616C75.9219 471.361 75.277 482.102 74.7244 492.849L73.4809 517.025C73.3487 519.601 73.6352 522.771 72.6467 525.174C71.115 528.903 66.5654 528.326 65.6092 525.21L65.5792 525.108L65.4919 525.174C64.6484 522.366 65.2797 519.033 65.4227 516.129L66.7254 489.716C67.6458 471.046 68.4668 452.377 69.4555 433.709L69.7916 427.487C70.2538 419.111 70.6082 410.757 70.8927 402.385L70.9851 399.592C71.2552 391.184 71.0409 383.247 66.9849 375.656ZM233.917 220.669C237.755 220.305 240.652 221.578 244.134 222.917C245.652 223.502 247.089 224.175 248.545 224.873C250.367 225.748 251.537 227.293 252.659 228.928L253.259 229.809C257.934 236.657 261.075 244.558 264.624 252.014C268.772 260.737 272.961 269.441 277.023 278.206L279.026 282.523C280.028 284.681 281.027 286.842 282.01 289.009L283.711 292.781C285.418 296.608 286.95 300.654 284.515 304.601C282.253 308.27 278.24 311.11 275.062 313.947C272.412 316.314 269.76 318.681 267.108 321.046C272.591 326.538 276.269 333.451 278.434 340.867C281.505 339.586 285.258 339.341 288.434 338.785C292.883 338.011 293.428 344.748 289.23 344.665C286.129 344.603 282.493 344.92 279.313 344.266C279.864 346.704 280.267 349.177 280.522 351.657C281.857 364.656 278.936 377.732 275.892 390.307L275.641 391.342C272.333 404.954 269.198 418.603 266.393 432.33C263.579 446.085 261.05 459.897 258.804 473.758C256.52 487.864 254.903 502.049 253.164 516.229C252.902 518.375 251.55 520.216 249.181 520.216C247.206 520.216 244.947 518.371 245.196 516.229C246.989 500.787 249.532 485.425 252.059 470.086C256.412 443.673 261.891 417.489 268.191 391.478L269.292 386.949C272.127 375.199 274.7 363.094 273.279 350.976C272.118 341.108 267.995 330.588 259.843 324.458L259.596 324.273C257.691 322.876 256.959 320.205 258.834 318.366C260.028 317.195 261.222 316.027 262.419 314.858L269.594 307.849L271.039 306.433C272.246 305.256 273.457 304.085 274.707 302.949C275.462 302.263 277.51 300.954 277.659 299.824C277.757 299.088 276.884 297.793 276.531 297.14L274.911 293.845C273.992 291.98 273.102 290.101 272.204 288.225C270.341 284.341 268.455 280.467 266.633 276.563L255.697 253.119C252.612 246.505 249.862 239.522 245.828 233.408L245.035 232.216C244.37 231.212 243.783 230.247 243.364 229.019C242.961 227.838 242.455 226.542 241.708 225.533C239.962 223.168 236.622 221.827 233.828 221.331C233.423 221.261 233.57 220.703 233.917 220.669ZM149.8 214.511C150.043 214.511 150.079 214.858 149.855 214.926C146.484 215.939 143.263 217.576 140.637 219.937C139.379 221.067 138.112 222.35 137.335 223.872C137.039 224.453 136.875 225.069 136.754 225.707L136.716 225.92C136.516 227.072 136.228 227.712 135.643 228.636L135.543 228.791C132.203 233.951 129.863 239.683 127.723 245.42L123.062 257.932L118.404 270.445C116.904 274.477 115.402 278.509 113.901 282.542C113.072 284.767 112.219 286.984 111.367 289.2C110.998 290.16 110.602 291.114 110.264 292.087C110.218 292.219 110.071 293.019 109.96 293.215L109.998 293.281C110.937 294.86 113.442 296.182 114.863 297.329L119.753 301.284C123.239 304.105 126.815 306.846 130.196 309.792C132.32 311.642 130.998 314.956 128.63 315.729C124.661 317.021 120.771 318.57 116.861 320.035C115.281 320.624 113.636 321.14 112.075 321.791L111.124 322.202C110.753 322.37 110.932 322.368 110.946 323.053C110.961 323.773 111.165 324.522 111.282 325.226C112.599 333.196 113.995 341.148 115.469 349.088C120.682 377.166 126.91 405.037 134.013 432.696C137.601 446.661 141.448 460.561 145.115 474.507C148.772 488.417 153.585 502.125 158.18 515.748C159.477 519.59 153.387 521.244 152.122 517.419C146.827 501.397 141.982 485.235 136.98 469.124C128.09 440.493 121.086 411.242 114.891 381.919C111.82 367.387 109.012 352.798 106.468 338.164C105.986 335.392 105.514 332.621 105.052 329.848L104.378 325.767C103.915 322.859 103.652 319.83 105.912 317.527C108.118 315.282 111.906 314.486 114.809 313.432L115.02 313.355C116.867 312.666 118.728 312.002 120.582 311.316C117.851 309.164 115.154 306.968 112.431 304.818C110.233 303.085 108.002 301.386 105.836 299.611C104.05 298.149 102.594 296.271 102.408 293.892C102.218 291.461 103.259 289.205 104.099 286.974L104.18 286.759C105.005 284.532 105.832 282.308 106.68 280.09L111.928 266.359C115.263 257.636 118.457 248.841 121.965 240.184C123.352 236.759 124.865 233.387 126.652 230.147C127.513 228.587 128.438 227.059 129.442 225.584C130.566 223.932 131.588 223.125 133.331 222.214C136.12 220.756 138.308 218.31 141.107 216.808C143.855 215.333 146.682 214.545 149.8 214.511ZM158.851 198.947C158.957 198.764 159.238 198.845 159.242 199.053C159.315 203.389 158.285 207.819 157.652 212.108C157.016 216.41 156.812 220.952 155.89 225.207C155.871 225.407 155.833 225.601 155.779 225.792L155.735 225.939C155.347 227.131 154.336 228.142 153.097 228.459C153.487 230.62 153.853 232.785 154.162 234.96C154.694 238.702 155.177 242.448 155.654 246.197L156.224 250.694C156.763 254.932 157.286 259.173 157.804 263.415C159.119 263.964 160.462 264.42 161.839 264.813C165.007 265.72 168.251 266.088 171.52 266.41C178.178 267.063 184.887 267.365 191.569 267.736L193.002 267.817C200.513 268.247 208.065 268.323 215.558 267.553C219.272 267.172 222.959 266.529 226.582 265.62C228.423 265.158 230.213 264.468 232.05 264.017C232.661 263.866 233.204 263.521 233.815 263.153C234.087 262.808 234.466 262.551 234.962 262.448L235.096 262.425L235.23 262.406L235.275 262.387L235.273 262.399C235.648 262.348 236.005 262.351 236.341 262.395C236.476 259.09 236.62 255.782 236.803 252.476C237.293 243.598 238.642 234.336 236.84 225.535C236.78 225.239 237.182 225.135 237.287 225.411C240.822 234.728 240.424 244.918 240.603 254.724C240.777 264.313 240.671 273.911 240.624 283.502C241.312 283.796 241.923 284.192 242.408 284.747C243.378 285.858 243.657 287.791 242.408 288.862C241.857 289.339 241.244 289.669 240.594 289.896C240.56 298.23 240.501 306.565 240.418 314.899C242.001 316.122 242.148 319.028 240.358 320.237C240.058 347.223 239.568 374.211 239.162 401.195L238.31 457.807C238.198 465.348 238.01 472.89 237.942 480.431L237.995 480.452L238.185 480.54C238.502 480.691 238.974 480.931 239.072 481.178C239.098 481.242 239.104 481.287 239.1 481.319C239.622 481.393 240.135 481.638 240.582 482.062C241.682 483.107 241.459 484.682 240.582 485.748L240.347 486.031C239.8 486.695 238.764 486.951 237.917 486.817C237.925 491.523 237.955 496.232 237.94 500.938C237.936 502.377 237.912 503.813 237.889 505.252L237.829 508.699C237.789 510.665 237.614 513.166 235.601 514.05C233.329 515.048 231.29 514.231 230.371 511.921C230.122 511.295 230.175 510.714 230.266 510.095C230.239 509.167 230.092 508.09 230.111 507.228L230.186 503.635C230.198 503.079 230.22 502.526 230.237 501.972L230.171 501.979C222.097 502.37 213.966 502.179 205.877 502.174L202.282 502.179C199.281 502.183 196.273 502.166 193.276 502.051L192.152 502.004C189.909 501.898 187.55 501.864 185.224 501.664C185.52 504.052 185.796 506.442 186.043 508.835C186.277 511.104 183.938 513.032 181.85 513.032C179.37 513.032 177.95 511.083 177.655 508.835C176.254 498.237 175.679 487.54 174.34 476.938C173.142 467.44 172.101 457.919 171.045 448.405L170.692 445.233C166.824 410.603 163.07 375.961 159.479 341.301L157.806 325.099C156.118 308.768 154.417 292.438 152.984 276.082C152.165 266.733 151.411 257.38 150.701 248.021C150.179 241.146 149.851 234.309 149.638 227.446C148.798 226.58 148.376 225.318 148.749 224.013C148.966 223.251 149.219 222.495 149.487 221.737C149.47 220.997 149.453 220.254 149.438 219.509C149.426 218.806 150.139 218.445 150.711 218.559C151.75 216.043 152.893 213.549 153.849 211.058C155.394 207.025 156.667 202.678 158.851 198.947ZM72.5547 242.54C88.7074 232.412 107.935 225.126 127.192 225.909C127.63 225.929 127.753 226.597 127.299 226.697C117.027 228.992 106.642 231.786 96.9173 235.854C87.1642 239.932 77.8904 245.426 69.6309 252.027C54.3914 264.207 42.5464 280.047 34.7468 297.904C30.1783 308.364 26.9761 319.409 24.1798 330.456C21.2208 342.149 18.7821 353.966 16.7545 365.854C12.7493 389.339 10.4177 413.081 9.17696 436.864C7.91472 461.057 8.43494 485.267 7.53477 509.465C7.37917 513.658 1.38917 513.575 1.08478 509.465C-0.95503 481.955 0.175023 454.005 2.06136 426.514C3.75762 401.802 6.71995 377.14 11.4899 352.823L11.9054 350.716C16.3645 328.219 21.743 305.177 32.5231 284.805C41.7266 267.41 55.9353 252.959 72.5547 242.54ZM296.859 350.058C296.944 349.818 297.261 349.82 297.346 350.058C299.187 355.216 299.253 361.033 299.743 366.47L299.781 366.887C300.252 371.844 300.605 376.808 300.933 381.776L301.056 383.639C302.374 403.907 304.024 424.15 306.508 444.311C308.983 464.394 312.331 484.339 315.95 504.243C316.354 506.459 315.373 508.718 313.049 509.356C311.001 509.918 308.372 508.656 307.94 506.453C305.692 495.029 303.875 483.588 302.255 472.064C299.4 451.772 297.27 431.385 295.901 410.94C295.213 400.669 294.79 390.405 294.622 380.114C294.545 375.339 294.669 370.552 294.924 365.782L294.984 364.682C295.265 359.807 295.237 354.707 296.859 350.058ZM122.319 479.145C122.535 479.028 122.802 479.269 122.665 479.492C119.538 484.578 115.306 488.962 111.217 493.283C106.942 497.8 102.772 502.453 98.4105 506.883C95.2589 510.082 90.1895 504.92 93.5154 501.985C98.1919 497.86 103.08 493.939 107.839 489.903L109.921 488.139C113.823 484.842 117.842 481.572 122.319 479.145ZM270.873 476.6C270.639 476.155 271.173 475.793 271.535 476.089C274.058 478.141 276.32 480.589 278.755 482.755C281.169 484.901 283.67 486.902 286.242 488.852C288.823 490.812 291.461 492.694 294.17 494.473C296.418 495.951 298.734 497.134 301.086 498.36C302.176 498.498 303.185 499.035 303.994 500.048C305.271 501.653 305.405 504.678 303.634 506.07L303.317 506.321C301.25 507.945 298.796 508.143 296.761 506.321C294.488 504.286 292.34 502.045 290.158 499.895L289.502 499.252C287.159 496.972 284.871 494.618 282.714 492.157L280.76 489.937C277.14 485.804 273.368 481.351 270.873 476.6ZM259.251 238.376C258.832 238.098 259.092 237.35 259.609 237.527L260.56 237.857C264.53 239.236 268.615 240.767 272.219 242.891C276.092 245.175 279.669 247.895 283.087 250.814C290.158 256.852 296.176 264.279 301.288 272.021C311.55 287.555 317.896 305.343 323.017 323.145C328.481 342.123 332.685 361.512 336.12 380.954C339.609 400.712 342.3 420.65 344.071 440.637C344.941 450.482 345.526 460.335 345.82 470.216C345.971 475.297 345.967 480.378 345.925 485.461C345.914 486.768 345.922 488.075 345.937 489.382L345.986 493.305C346.014 495.782 346.31 498.388 345.722 500.81C344.773 504.71 338.33 503.982 338.541 499.997C338.347 498.671 338.338 497.3 338.389 495.927C338.36 495.75 338.326 495.572 338.289 495.386C338.183 494.861 338.272 494.373 338.481 493.954C338.513 493.294 338.543 492.641 338.553 491.996C338.596 489.38 338.594 486.772 338.521 484.154C338.368 478.637 338.149 473.117 337.927 467.602C337.485 456.58 336.87 445.554 335.976 434.558C332.868 396.289 326.305 357.8 315.286 320.98C310.167 303.883 303.108 287.097 292.989 272.323C288.496 265.765 283.428 259.705 277.808 254.083C272.155 248.425 265.922 242.795 259.251 238.376ZM182.989 485.086L183.753 490.614C184.134 493.377 184.513 496.142 184.87 498.909C187.31 498.575 189.802 498.435 192.152 498.226C196.265 497.862 200.405 497.685 204.53 497.515C213.059 497.164 221.631 496.553 230.171 496.595C230.258 496.595 230.341 496.602 230.422 496.608L230.845 485.704L224.847 485.695C219.764 485.687 214.683 485.644 209.6 485.599C205.024 485.561 200.445 485.555 195.867 485.459L193.906 485.412C190.437 485.318 186.603 485.512 182.989 485.086ZM231.35 469.258C231.105 469.288 230.856 469.311 230.59 469.324C229.402 469.373 228.206 469.339 227.016 469.348C224.485 469.371 221.952 469.388 219.421 469.388C214.358 469.386 209.294 469.418 204.232 469.478C199.019 469.541 193.81 469.633 188.598 469.641C186.073 469.648 183.555 469.58 181.031 469.509C181.439 473.098 181.867 476.685 182.337 480.263C186.258 479.733 190.475 479.999 194.306 479.963L194.805 479.956C200.032 479.867 205.266 479.933 210.498 479.939C215.879 479.946 221.261 479.963 226.642 480.008L231.063 480.044L231.071 479.82C231.201 476.304 231.284 472.783 231.35 469.258ZM179.087 452.089C179.577 456.325 180.036 460.569 180.505 464.812C180.818 464.763 181.133 464.722 181.454 464.688C183.983 464.424 186.507 464.196 189.045 464.039C194.104 463.726 199.164 463.56 204.232 463.424C209.443 463.285 214.656 463.177 219.868 463.105C222.401 463.068 224.93 463.073 227.463 463.09C228.651 463.098 229.851 463.06 231.037 463.141C231.18 463.149 231.314 463.164 231.448 463.179L231.537 456.81C231.552 455.748 231.569 454.688 231.586 453.626C227.672 453.869 223.691 453.775 219.781 453.777L218.879 453.779C213.964 453.801 209.049 453.735 204.134 453.632C199.064 453.526 194.006 453.36 188.945 453.036C186.895 452.904 184.86 452.73 182.821 452.504L181.801 452.387C180.913 452.283 180 452.198 179.087 452.089ZM231.991 434.116C222.563 434.863 213.187 435.176 203.734 435.269L202.316 435.282C193.964 435.344 185.541 435.689 177.169 435.467C177.67 439.809 178.17 444.152 178.672 448.492C179.87 448.437 181.075 448.437 182.248 448.394C184.632 448.307 187.008 448.285 189.392 448.281C194.306 448.268 199.221 448.313 204.134 448.302C209.2 448.292 214.262 448.207 219.326 448.111C223.432 448.034 227.58 447.726 231.697 447.736L231.991 434.116ZM232.389 415.591C231.297 415.955 230.007 415.978 228.593 416.042L224.943 416.225C223.253 416.308 221.561 416.385 219.868 416.446C214.228 416.653 208.589 416.846 202.948 417.025C197.167 417.21 191.36 417.317 185.579 417.134C182.748 417.044 179.941 416.895 177.116 416.659C176.418 416.602 175.707 416.563 174.994 416.512C175.652 422.266 176.311 428.017 176.973 433.769C185.305 432.745 193.702 432.108 202.025 431.05L209.549 430.088C217.071 429.128 224.585 428.187 232.135 427.394L232.389 415.591ZM232.791 396.863C231.188 397.259 229.362 397.24 227.821 397.338L227.538 397.357C224.619 397.579 221.697 397.689 218.774 397.762C213.044 397.902 207.312 397.972 201.58 398.009L198.134 398.03C193.54 398.055 188.949 398.068 184.353 397.962C181.405 397.892 178.463 397.749 175.52 397.6C174.636 397.555 173.734 397.528 172.829 397.481C173.444 402.928 174.068 408.373 174.687 413.817C175.656 413.664 176.629 413.547 177.555 413.39C179.928 412.99 182.297 412.668 184.69 412.383C189.868 411.761 195.073 411.314 200.277 410.938C205.618 410.55 210.965 410.222 216.307 409.848L220.09 409.582C221.352 409.494 222.612 409.409 223.874 409.33C226.029 409.198 228.534 409.348 230.671 408.879C231.25 408.639 231.893 408.583 232.536 408.72L232.791 396.863ZM233.276 374.943C232.721 375.648 231.893 376.016 230.905 376.144C225.76 376.812 220.484 376.919 215.296 377.234L214.383 377.291C209.025 377.645 203.666 377.921 198.306 378.207C192.799 378.498 187.293 378.737 181.782 378.93C179.443 379.011 177.093 379.02 174.749 378.99L173.744 378.975C172.782 378.96 171.775 378.962 170.764 378.928C171.324 384.022 171.888 389.113 172.461 394.205C173.491 394.092 174.519 394.007 175.518 393.9C178.461 393.59 181.403 393.281 184.353 393.049C189.943 392.608 195.539 392.344 201.139 392.066C206.869 391.783 212.604 391.593 218.334 391.325C221.114 391.195 223.891 391.035 226.661 390.778C228.604 390.601 230.909 389.939 232.936 390.182C233.046 385.101 233.161 380.022 233.276 374.943ZM233.728 355.305C233.64 355.441 233.538 355.573 233.413 355.695C231.148 357.934 228.357 357.762 225.356 357.996L225.171 358.011C222.231 358.258 219.287 358.494 216.344 358.707C210.456 359.13 204.56 359.428 198.664 359.694C192.631 359.965 186.561 360.152 180.522 360.029C176.654 359.95 172.606 359.963 168.661 359.586C169.266 365.195 169.875 370.803 170.49 376.41C171.599 376.201 172.714 376.042 173.772 375.874C176.437 375.456 179.104 375.033 181.784 374.724C187.137 374.109 192.495 373.532 197.859 373.011C202.448 372.566 207.035 372.115 211.627 371.708L214.383 371.47C219.862 371.008 225.409 370.248 230.905 370.135C231.812 370.118 232.836 370.61 233.355 371.389C233.476 366.027 233.602 360.667 233.728 355.305ZM234.109 339.409C232.71 339.579 231.201 339.481 229.911 339.524C226.646 339.63 223.381 339.73 220.117 339.826L200.528 340.405C193.857 340.601 187.165 340.748 180.492 340.654C177.559 340.614 174.611 340.607 171.675 340.448L170.698 340.39C169.492 340.309 168.01 340.297 166.563 340.15L168.27 355.98C172.195 355.414 176.241 355.201 180.132 354.869L180.965 354.794C186.703 354.271 192.472 353.926 198.221 353.536C204.121 353.136 210.011 352.651 215.901 352.155C218.845 351.908 221.788 351.661 224.73 351.391L225.094 351.355C227.874 351.063 230.486 350.446 232.948 352.085C233.308 352.325 233.589 352.645 233.783 353.004C233.891 348.473 233.996 343.941 234.109 339.409ZM234.564 320.935C222.633 321.414 210.703 321.78 198.764 321.94C192.044 322.029 185.332 321.965 178.612 321.825C175.698 321.765 172.761 321.625 169.849 321.401L168.759 321.314C167.374 321.197 165.92 321.114 164.472 320.974C165.07 326.416 165.664 331.859 166.254 337.304C167.678 337.04 169.166 336.916 170.415 336.757L170.698 336.721C173.8 336.293 176.931 336.044 180.047 335.769C186.116 335.235 192.216 334.89 198.302 334.596C204.532 334.296 210.767 334.043 216.999 333.766L223.234 333.487C224.272 333.441 225.311 333.396 226.35 333.351C227.834 333.289 229.317 333.23 230.801 333.168C231.533 333.138 232.295 333.038 233.027 333.077L233.236 333.047C233.332 333.036 233.417 333.025 233.496 333.017C233.693 332.866 233.908 332.74 234.136 332.644L234.275 332.591L234.564 320.935ZM162.516 303.428C163.07 308.328 163.619 313.228 164.159 318.13C165.86 317.934 167.582 317.827 169.206 317.681C172.482 317.387 175.775 317.129 179.059 316.978L185.628 316.674C190.005 316.472 194.383 316.276 198.764 316.116C210.754 315.678 222.744 315.175 234.726 314.564C234.811 311.24 234.898 307.915 234.988 304.592C234.411 305.207 233.581 305.614 232.489 305.612C219.909 305.578 207.318 305.65 194.741 305.443C188.444 305.339 182.154 305.186 175.867 304.862C172.789 304.705 169.694 304.383 166.641 303.96C165.339 303.779 163.913 303.651 162.516 303.428ZM160.503 285.967C161.094 290.986 161.675 296.008 162.246 301.029C163.808 300.75 165.422 300.601 166.88 300.403C170.011 299.977 173.161 299.639 176.316 299.46C182.452 299.113 188.593 298.939 194.741 298.807C207.318 298.54 219.909 298.543 232.489 298.443C233.67 298.432 234.547 298.9 235.124 299.598C235.211 296.465 235.303 293.33 235.398 290.197C234.183 290.067 232.978 289.886 231.863 289.807C228.438 289.569 225.009 289.349 221.58 289.153C214.426 288.743 207.263 288.391 200.103 288.081C192.94 287.768 185.775 287.463 178.61 287.199L175.477 287.085C170.494 286.899 165.428 286.665 160.503 285.967ZM158.251 267.065C158.866 272.148 159.472 277.233 160.077 282.319L160.26 283.892C166.252 282.727 172.567 282.385 178.61 282.127C185.777 281.823 192.929 281.665 200.103 281.689C207.267 281.71 214.421 281.88 221.58 282.176C225.158 282.323 228.734 282.493 232.31 282.689C233.293 282.742 234.445 282.712 235.631 282.729C235.658 281.931 235.679 281.133 235.707 280.333C235.816 277.097 235.922 273.86 236.033 270.624C233.615 271.867 230.471 272.368 228.04 272.898L227.763 272.959C223.751 273.86 219.653 274.445 215.558 274.803C207.514 275.505 199.387 275.241 191.352 274.562L189.945 274.441C182.889 273.83 175.573 273.053 168.732 271.308C165.473 270.475 162.105 269.311 159.185 267.623C158.881 267.448 158.568 267.261 158.251 267.065ZM226.192 206.659C226.263 206.384 226.673 206.32 226.81 206.578C227.759 208.383 228.115 210.552 228.772 212.487C229.483 214.566 230.145 216.663 230.928 218.717C232.565 223.01 234.496 227.135 236.797 231.114C239.077 235.052 232.695 237.863 231.018 233.551C229.285 229.102 227.861 224.502 227.001 219.8C226.58 217.506 226.205 215.181 226.084 212.851C225.98 210.848 225.699 208.611 226.192 206.659Z"
    fill="#3BBBED"
  />
  <path
    fill-rule="evenodd"
    clip-rule="evenodd"
    d="M272.778 119.303C272.599 109.225 272.401 98.9457 270.905 88.9657C269.44 79.2087 265.413 70.3894 258.491 63.3045C243.789 48.2549 222.477 44.5788 202.639 41.2101L168.725 35.4504C158.378 33.6937 147.339 30.8855 136.883 33.377C131.732 34.6048 127.358 37.4568 123.36 40.8315C119.506 44.0839 115.362 47.5769 112.751 51.9528C110.135 56.3349 109.235 61.4577 108.385 66.4139C107.426 72.0018 106.681 77.6334 106.151 83.2784C105.09 94.5883 104.946 105.983 105.715 117.316C106.088 122.813 106.681 128.295 107.438 133.751C107.814 136.458 108.238 139.157 108.718 141.846C108.859 142.64 108.966 143.519 109.111 144.404C108.041 147.448 107.433 150.6 107.482 153.74C107.627 162.987 115.428 168.806 123.292 171.933C127.852 173.744 132.62 174.975 137.1 176.999C141.813 179.13 145.021 182.58 148.243 186.518C154.389 194.03 161.326 200.779 169.244 206.409C186.036 218.351 207.303 223.998 227.675 219.711C232.565 218.683 237.494 217.086 241.89 214.679C246.528 212.139 250.017 208.457 252.946 204.104C258.384 196.024 262.286 186.927 265.236 177.667C268.246 168.223 270.383 158.761 271.547 148.912C272.71 139.095 272.954 129.181 272.778 119.303Z"
    fill="white"
  />
  <path
    fill-rule="evenodd"
    clip-rule="evenodd"
    d="M164.551 0.34389C178.585 -1.58758 197.957 4.68957 204.947 17.3463C238.317 9.47631 280.405 9.21854 307.91 35.4178C336.61 66.496 300.56 107.473 276.659 116.711C278.398 125.172 275.686 179.376 256.486 203.553C241.248 224.038 205.762 233.493 189.342 209.025L189.215 208.823C187.457 205.996 188.972 206.088 190.777 208.189C206.856 222.335 228.717 222.576 245.562 207.648C277.135 180.364 273.881 113.462 258.857 74.7594C216.077 70.0591 170.273 83.0301 140.726 115.245L142.725 127.28C143.063 129.329 143.451 131.377 143.746 133.433C143.936 134.753 143.955 136.064 143.044 137.131C140.028 140.653 134.949 135.36 130.768 133.254C129.535 133.08 128.298 133.014 127.086 133.099C107.003 135.687 110.96 174.659 133.033 167.829C134.887 166.673 136.479 167.024 137.199 168.701C142.461 173.523 145.93 182.12 154.67 190.402C157.755 193.508 160.56 196.107 164.03 198.599C166.067 200.66 172.216 202.763 170.266 206.29C166.582 214.317 144.847 189.104 141.005 182.131C128.964 186.886 115.622 185.27 103.145 184.108C37.3225 180.685 46.1097 111.274 100.063 67.4515C110.219 59.972 121.424 53.8702 133.072 49.175C134.662 48.5339 133.968 45.9219 132.354 46.572C124.647 49.6793 117.134 53.3777 109.972 57.6582L109.961 55.099C109.951 50.7887 110.019 46.3012 110.767 42.3629C111.141 39.6341 111.77 36.7192 112.739 34.5266C113.936 27.8042 132.695 4.72917 164.551 0.34389ZM126.207 142.045C127.223 141.081 129.121 142.233 130.025 142.203C132.339 142.52 134.538 143.497 136.252 144.704C137.384 145.338 138.176 145.934 138.84 146.481L138.857 146.477C138.853 146.477 138.846 146.481 138.84 146.483L138.904 146.526C139.868 147.211 143.402 151.075 141.169 150.036C141.003 149.821 140.832 149.612 140.66 149.408C140.643 149.436 140.617 149.463 140.585 149.491L140.711 149.676C142.61 152.531 139.334 149.523 138.829 148.725C138.806 148.744 138.778 148.757 138.753 148.772L139.408 149.57C139.5 149.683 139.572 149.774 139.632 149.851L139.77 149.985C141.965 152.141 142.033 154.082 139.483 150.894C139.585 151.043 139.664 151.202 139.677 151.345L139.828 151.537C141.829 154.117 140.2 153.201 139.206 152.099L139.123 152.005L139.14 152.031C140.064 153.455 138.229 152.454 137.906 151.692L137.891 151.658C137.537 151.369 137.32 151.045 137.246 150.964L137.233 150.949C135.511 149.187 133.018 147.695 130.898 147.016C130.592 146.958 130.281 146.911 129.967 146.877C128.693 146.594 127.405 146.398 126.104 146.294C125.945 146.275 125.783 146.158 125.663 146.007C123.695 145.941 124.302 145.134 125.119 144.983L125.133 144.981L124.971 144.968C123.708 144.844 122.846 144.391 124.123 144.112L124.284 144.08C124.265 144.048 124.247 144.019 124.23 143.987C123.136 143.867 123.85 142.803 124.457 143.061C124.202 142.226 125.369 142.641 125.515 142.518C125.626 142.394 125.764 142.286 125.844 142.28C126.195 142.033 126.025 142.054 126.207 142.045ZM132.899 128.52L132.644 128.669C132.435 128.791 132.222 128.872 132.009 128.919C132.312 129.048 132.61 129.187 132.906 129.336C132.901 129.155 132.897 128.972 132.897 128.791L132.899 128.52Z"
    fill="#3BBBED"
  />
  <path
    fill-rule="evenodd"
    clip-rule="evenodd"
    d="M232.963 183.621C229.649 184.581 226.094 184.666 222.716 183.674C219.653 182.776 216.509 180.796 214.255 178.178C212.252 175.851 210.956 173.025 211.007 170.009C211.013 169.664 211.137 169.376 211.326 169.153C211.529 168.912 211.814 168.746 212.12 168.676C212.433 168.602 212.765 168.627 213.048 168.757C213.304 168.872 213.523 169.07 213.659 169.359C214.006 169.815 214.351 170.262 214.698 170.698C217.482 174.14 220.181 176.711 224.368 177.633C226.641 178.133 228.91 177.912 230.994 177.148C233.223 176.33 235.239 174.894 236.818 173.055C237.531 172.222 238.374 171.884 239.198 171.877C240.13 171.871 241.054 172.305 241.748 172.999C242.431 173.68 242.889 174.608 242.931 175.577C242.967 176.426 242.691 177.316 241.952 178.108C239.521 180.719 236.371 182.633 232.963 183.621ZM232.861 140.526C236.256 142.59 241.431 147.405 237.778 152.524C233.478 157.039 227.286 151.865 224.236 149.523C221.407 147.71 218.229 152.375 220.854 154.493C242.899 170.822 251.846 141.066 234.579 138.099C232.678 137.771 231.971 139.887 232.861 140.526ZM201.094 131.441C200.004 130.741 198.719 130.502 197.297 131.149C196.186 131.656 194.234 133.342 192.878 135.56C191.948 137.075 191.29 138.855 191.428 140.709C191.46 141.139 191.301 141.456 191.05 141.69C190.852 141.875 190.566 142.011 190.23 142.054C189.945 142.09 189.626 142.058 189.366 141.977C188.872 141.822 188.61 141.503 188.512 141.241C187.561 138.716 187.972 135.898 189.036 133.357C190.473 129.925 193.084 127.052 194.794 126.126C197.72 124.54 201.173 124.468 204.104 126.083C206.599 127.458 208.157 129.678 209.709 131.941C210.039 132.422 210.366 132.899 210.705 133.369C211.382 134.308 211.45 135.24 211.188 136.041C210.896 136.926 210.156 137.673 209.228 138.065C208.37 138.425 207.376 138.476 206.494 138.105C205.752 137.79 205.068 137.18 204.636 136.143C203.91 134.393 202.697 132.465 201.094 131.441ZM256.527 135.33C255.779 135.719 255.194 135.836 254.364 135.587C253.906 135.449 253.453 135.185 253.097 134.832C252.746 134.478 252.493 134.042 252.395 133.557C252.152 132.358 251.497 131.237 250.562 130.507C249.766 129.883 248.757 129.551 247.642 129.738C246.435 129.938 245.288 130.713 244.496 131.624C244.232 131.928 244.025 132.275 243.817 132.62C243.427 133.263 243.048 133.861 242.51 134.334C242.308 134.515 241.999 134.638 241.703 134.638C241.582 134.638 241.458 134.619 241.341 134.583C240.143 133.378 239.911 132.465 239.949 131.558C239.99 130.607 240.364 129.644 240.971 128.746C242.391 126.641 245.088 124.913 246.905 124.523C249.398 123.987 251.871 124.63 253.855 126.022C255.896 127.454 257.41 129.678 257.88 132.184C257.995 132.788 257.946 133.44 257.716 134.004C257.493 134.557 257.101 135.03 256.527 135.33ZM206.59 108.983C205.094 110.441 203.325 110.667 201.535 110.867C200.539 110.98 199.745 111.071 198.964 111.247C196.816 111.732 194.694 112.463 192.757 113.515C190.73 114.615 188.525 115.941 186.937 117.64C186.558 118.045 186.203 118.469 185.847 118.894C185.522 119.282 185.209 119.655 184.879 120.015C184.5 120.428 184.14 120.862 183.783 121.294C183.561 121.658 183.519 121.748 183.474 121.842C183.406 121.982 183.327 122.139 183.24 122.307C183.116 122.538 182.974 122.79 182.825 123.019C182.576 123.438 182.442 123.553 182.327 123.605C182.135 123.69 181.954 123.732 181.777 123.709C181.611 123.688 181.456 123.608 181.303 123.479C180.534 122.83 180.309 121.765 180.332 120.635C180.366 118.919 180.998 117.02 181.582 115.853C182.938 113.14 184.817 110.32 187.078 108.296C189.657 105.985 192.48 104.235 195.722 103.03C197.735 102.28 200.068 101.592 202.263 101.679C203.842 101.742 205.349 102.211 206.594 103.384C207.359 104.105 207.727 105.129 207.727 106.152C207.727 107.196 207.346 108.247 206.59 108.983ZM259.568 122.329C259.472 122.485 259.34 122.592 259.194 122.657C259.04 122.724 258.87 122.744 258.706 122.716C258.542 122.689 258.385 122.614 258.261 122.501C258.144 122.392 258.055 122.248 258.014 122.071C257.02 117.709 255.094 114.464 250.979 112.372C248.955 111.342 246.629 110.688 244.426 110.166C243.785 110.015 243.108 109.917 242.427 109.817C240.292 109.505 238.142 109.148 236.75 107.422C235.911 106.381 235.558 105.052 235.758 103.835C235.945 102.69 236.614 101.64 237.829 101.01C240.858 99.4445 244.619 100.981 247.678 102.29C247.904 102.387 248.127 102.483 248.344 102.575C251.335 103.837 254.062 105.504 256.303 107.887C258.082 109.778 259.73 112.573 260.394 115.448C260.945 117.84 260.816 120.283 259.568 122.329Z"
    fill="#3BBBED"
  />
  <path
    fill-rule="evenodd"
    clip-rule="evenodd"
    d="M233.354 158.054C228.352 155.8 219.372 157.767 216.113 158.548C208.533 160.366 200.906 164.297 198.55 170.453C195.896 177.392 201.194 179.576 201.973 179.219C207.22 179.589 213.469 176.29 218.967 175.436C223.431 174.74 228.139 174.131 232.322 171.758C235.374 173.44 242.271 174.346 247.837 175.817C252.577 177.067 254.631 179.778 259.027 179.202C264.293 178.512 262.137 167.431 256.268 162.941C249.842 158.027 238.978 156.034 233.354 158.054ZM243.256 205.436C238.88 206.505 238.586 196.911 238.097 193.521C237.714 190.873 235.555 184.044 230.078 184.34C224.604 184.634 222.545 190.355 222.822 193.912C223.003 196.222 225.13 207.91 218.344 209.389C214.018 209.372 209.014 209.08 204.465 208.242C199.112 207.028 192.152 202.782 190.312 211.145C189.65 214.155 213.233 223.097 223.697 223.906C234.308 226.058 246.724 222.75 254.28 214.627C256 212.78 260.841 205.111 261.185 203.233C261.909 199.285 260.232 196.745 255.349 198.135C251.901 199.979 246.07 204.751 243.256 205.436Z"
    fill="#3BBBED"
  />
  <path
    fill-rule="evenodd"
    clip-rule="evenodd"
    d="M264.415 148.186C257.667 151.439 248.251 146.641 243.712 141.618C242.061 139.789 240.786 134.555 241.422 131.237C243.142 122.247 249.609 116.853 256.437 115.01C265.901 112.456 275.424 118.927 274.313 126.562C273.261 133.799 271.665 144.298 264.415 148.186ZM218.478 130.919C217.938 140.715 210.075 149.289 200.675 151.831C185.532 156.058 178.048 145.409 174.657 133.936C174.321 132.797 173.529 129.317 175.653 126.332C184.01 114.593 204.342 116.594 214.498 119.817C217.471 122.66 218.687 126.765 218.478 130.919ZM271.748 114.024C271.744 114.03 271.739 114.035 271.735 114.041C271.699 114.019 271.665 113.998 271.631 113.977C271.669 113.993 271.71 114.007 271.748 114.024ZM284.419 115.156C283.538 105.182 252.256 109.001 248.6 109.819C238.617 112.756 229.996 120.745 218.836 117.233C207.273 104.338 168.335 108.036 160.172 114.605C158.627 113.998 156.748 114.324 154.757 114.896C144.534 114.527 97.8621 118.052 107.408 131.105C108.857 132.111 110.305 131.088 110.345 129.017C160.111 111.045 155.285 127.878 161.188 125.913C162.088 126.173 163.029 126.337 163.853 126.509C168.421 127.98 169.97 127.524 170.573 132.654C174.706 172.267 227.435 158.595 223.112 126.103C227.393 125.868 231.139 124.014 235.666 125.824C238.81 156.433 263.432 157.667 270.841 147.056C276.429 139.693 274.213 128.578 281.895 122.785C284.926 125.323 285.122 116.757 284.419 115.156Z"
    fill="#3BBBED"
  />
</svg>
